<svg width="200" height="114" viewBox="0 0 200 114" fill="none" xmlns="http://www.w3.org/2000/svg">
<g clip-path="url(#clip0_7_2776)">
<path d="M81.7362 50.2417C81.7362 51.2582 81.8461 52.0824 82.0384 52.6868C82.2581 53.2912 82.5329 53.9505 82.9175 54.6648C83.0549 54.8846 83.1098 55.1044 83.1098 55.2967C83.1098 55.5714 82.945 55.8461 82.5878 56.1209L80.8571 57.2747C80.6098 57.4395 80.3625 57.522 80.1428 57.522C79.868 57.522 79.5933 57.3846 79.3186 57.1373C78.934 56.7253 78.6043 56.2857 78.3296 55.8461C78.0549 55.3791 77.7801 54.8571 77.4779 54.2253C75.3351 56.7527 72.6428 58.0165 69.401 58.0165C67.0933 58.0165 65.2527 57.3571 63.9065 56.0384C62.5603 54.7198 61.8735 52.9615 61.8735 50.7637C61.8735 48.4286 62.6977 46.533 64.3735 45.1044C66.0494 43.6758 68.2746 42.9615 71.1043 42.9615C72.0384 42.9615 72.9999 43.0439 74.0164 43.1813C75.0329 43.3187 76.0768 43.5384 77.1757 43.7857V41.7802C77.1757 39.6923 76.7362 38.2363 75.8845 37.3846C75.0054 36.533 73.5219 36.1209 71.4065 36.1209C70.445 36.1209 69.456 36.2308 68.4395 36.478C67.423 36.7253 66.434 37.0275 65.4724 37.4121C65.0329 37.6044 64.7032 37.7143 64.5109 37.7692C64.3186 37.8242 64.1812 37.8516 64.0713 37.8516C63.6867 37.8516 63.4944 37.5769 63.4944 37V35.6538C63.4944 35.2143 63.5494 34.8846 63.6867 34.6923C63.8241 34.5 64.0713 34.3077 64.456 34.1154C65.4175 33.6209 66.5713 33.2088 67.9175 32.8791C69.2636 32.522 70.6922 32.3571 72.2032 32.3571C75.4724 32.3571 77.8625 33.0989 79.401 34.5824C80.912 36.0659 81.6812 38.3187 81.6812 41.3406V50.2417H81.7362ZM70.5823 54.4176C71.4889 54.4176 72.423 54.2527 73.412 53.9231C74.401 53.5934 75.2801 52.989 76.0219 52.1648C76.4614 51.6428 76.7911 51.0659 76.956 50.4066C77.1208 49.7472 77.2307 48.9505 77.2307 48.0165V46.8626C76.434 46.6703 75.5823 46.5055 74.7032 46.3956C73.8241 46.2857 72.9724 46.2308 72.1208 46.2308C70.2801 46.2308 68.934 46.5879 68.0274 47.3297C67.1208 48.0714 66.6812 49.1154 66.6812 50.489C66.6812 51.7802 67.0109 52.7417 67.6977 53.4011C68.3571 54.0879 69.3186 54.4176 70.5823 54.4176ZM92.6428 57.3846C92.1483 57.3846 91.8186 57.3022 91.5988 57.1099C91.379 56.945 91.1867 56.5604 91.0219 56.0384L84.5658 34.8022C84.401 34.2527 84.3186 33.8956 84.3186 33.7033C84.3186 33.2637 84.5384 33.0165 84.9779 33.0165H87.6702C88.1922 33.0165 88.5494 33.0989 88.7417 33.2912C88.9614 33.456 89.1263 33.8406 89.2911 34.3626L93.9065 52.5494L98.1922 34.3626C98.3296 33.8132 98.4944 33.456 98.7142 33.2912C98.934 33.1264 99.3186 33.0165 99.8131 33.0165H102.011C102.533 33.0165 102.89 33.0989 103.11 33.2912C103.33 33.456 103.522 33.8406 103.632 34.3626L107.972 52.7692L112.725 34.3626C112.89 33.8132 113.082 33.456 113.275 33.2912C113.494 33.1264 113.852 33.0165 114.346 33.0165H116.901C117.341 33.0165 117.588 33.2363 117.588 33.7033C117.588 33.8406 117.56 33.978 117.533 34.1428C117.505 34.3077 117.45 34.5275 117.341 34.8297L110.72 56.0659C110.555 56.6154 110.363 56.9725 110.143 57.1373C109.923 57.3022 109.566 57.4121 109.099 57.4121H106.736C106.214 57.4121 105.857 57.3297 105.637 57.1373C105.417 56.945 105.225 56.5879 105.115 56.0384L100.857 38.3187L96.6263 56.011C96.4889 56.5604 96.3241 56.9176 96.1043 57.1099C95.8845 57.3022 95.4999 57.3846 95.0054 57.3846H92.6428ZM127.945 58.1264C126.516 58.1264 125.088 57.9615 123.714 57.6319C122.341 57.3022 121.269 56.945 120.555 56.533C120.115 56.2857 119.813 56.011 119.703 55.7637C119.593 55.5165 119.538 55.2417 119.538 54.9945V53.5934C119.538 53.0165 119.758 52.7417 120.17 52.7417C120.335 52.7417 120.5 52.7692 120.665 52.8242C120.83 52.8791 121.077 52.989 121.352 53.0989C122.286 53.511 123.302 53.8406 124.374 54.0604C125.472 54.2802 126.544 54.3901 127.643 54.3901C129.374 54.3901 130.72 54.0879 131.654 53.4835C132.588 52.8791 133.082 52 133.082 50.8736C133.082 50.1044 132.835 49.4725 132.341 48.9505C131.846 48.4286 130.912 47.9615 129.566 47.522L125.582 46.2857C123.577 45.6538 122.093 44.7198 121.187 43.4835C120.28 42.2747 119.813 40.9286 119.813 39.5C119.813 38.3461 120.06 37.3297 120.555 36.4505C121.049 35.5714 121.709 34.8022 122.533 34.1978C123.357 33.5659 124.291 33.0989 125.39 32.7692C126.489 32.4395 127.643 32.3022 128.852 32.3022C129.456 32.3022 130.088 32.3297 130.692 32.4121C131.324 32.4945 131.901 32.6044 132.478 32.7143C133.027 32.8516 133.549 32.989 134.044 33.1538C134.538 33.3187 134.923 33.4835 135.198 33.6483C135.582 33.8681 135.857 34.0879 136.022 34.3352C136.187 34.5549 136.269 34.8571 136.269 35.2417V36.533C136.269 37.1099 136.049 37.4121 135.637 37.4121C135.417 37.4121 135.06 37.3022 134.593 37.0824C133.027 36.3681 131.269 36.011 129.319 36.011C127.753 36.011 126.516 36.2582 125.665 36.7802C124.813 37.3022 124.374 38.0989 124.374 39.2253C124.374 39.9945 124.648 40.6538 125.198 41.1758C125.747 41.6978 126.764 42.2198 128.22 42.6868L132.121 43.9231C134.099 44.5549 135.527 45.4341 136.379 46.5604C137.231 47.6868 137.643 48.978 137.643 50.4066C137.643 51.5879 137.396 52.6593 136.928 53.5934C136.434 54.5275 135.775 55.3516 134.923 56.011C134.071 56.6978 133.055 57.1923 131.874 57.5494C130.637 57.9341 129.346 58.1264 127.945 58.1264Z" fill="black"/>
<path fill-rule="evenodd" clip-rule="evenodd" d="M133.137 71.478C124.099 78.1538 110.967 81.6978 99.6756 81.6978C83.8514 81.6978 69.5932 75.8461 58.8239 66.1209C57.9723 65.3516 58.7415 64.3077 59.758 64.9121C71.4064 71.6703 85.7745 75.7637 100.637 75.7637C110.665 75.7637 121.681 73.6758 131.818 69.3901C133.329 68.7033 134.621 70.3791 133.137 71.478Z" fill="black"/>
<path fill-rule="evenodd" clip-rule="evenodd" d="M136.901 67.1923C135.748 65.7088 129.264 66.478 126.325 66.8351C125.445 66.945 125.308 66.1758 126.105 65.5989C131.27 61.9725 139.759 63.0165 140.748 64.2252C141.737 65.4615 140.473 73.9505 135.638 78.0165C134.896 78.6483 134.182 78.3187 134.511 77.4945C135.61 74.7747 138.055 68.6483 136.901 67.1923Z" fill="black"/>
</g>
<defs>
<clipPath id="clip0_7_2776">
<rect width="83.5165" height="50" fill="white" transform="translate(58 32)"/>
</clipPath>
</defs>
</svg>
