<svg width="200" height="114" viewBox="0 0 200 114" fill="none" xmlns="http://www.w3.org/2000/svg">
<g clip-path="url(#clip0_7_2759)">
<path d="M143.413 59.8857V56.6835C143.413 48.745 137.686 45.1501 132.379 45.1501C125.055 45.1501 119.973 50.9558 119.973 57.9371C119.973 65.383 124.753 69.9741 130.719 69.9741C135.078 69.9741 137.56 68.2421 139.166 66.6774C139.524 67.3106 139.932 67.9146 140.385 68.4839C140.999 69.2241 141.683 69.5717 142.479 69.5717C142.96 69.5622 143.435 69.4545 143.873 69.2551C144.837 68.8359 145.456 68.2224 145.656 67.4625C145.741 67.1253 145.753 66.7738 145.691 66.4316C145.629 66.0894 145.494 65.7645 145.296 65.4786C144.195 63.8325 143.413 61.532 143.413 59.8857ZM136.916 57.3236C136.687 61.3152 134.475 64.7582 130.663 64.4022C127.696 64.1349 125.951 60.9678 126.495 57.0619C127.046 53.1606 129.48 50.4212 132.612 50.6786C135.677 50.839 137.12 53.4124 136.916 57.3236Z" fill="black"/>
<path d="M153.001 72.3815C151.825 75.4003 152.256 76.2416 153.438 76.7101C154.574 77.1337 155.831 77.0934 156.937 76.598C158.044 76.1025 158.911 75.1917 159.351 74.0623L168.858 49.6216C170.031 46.6063 169.603 45.7657 168.417 45.2964C167.282 44.8727 166.025 44.913 164.92 45.4085C163.814 45.9041 162.947 46.8151 162.508 47.9445L159.067 56.8002L154.078 47.4308C153.505 46.3668 152.539 45.5693 151.386 45.209C150.233 44.8487 148.984 44.9544 147.908 45.5033C146.783 46.1027 146.451 46.9736 147.959 49.8024L155.948 64.8145L153.001 72.3815Z" fill="black"/>
<path d="M113.846 45.1557C111.715 45.1557 110.546 46.1076 110.209 47.8544L107.747 61.6784C107.744 61.6955 107.735 61.711 107.721 61.7223C107.708 61.7336 107.691 61.7401 107.674 61.7407C107.656 61.7414 107.639 61.7361 107.625 61.7258C107.611 61.7155 107.601 61.7007 107.596 61.6839L104.404 48.4784C103.808 46.1828 103.126 45.1557 101.172 45.1557C99.2138 45.1557 98.5342 46.1828 97.9352 48.4784L94.7437 61.6839C94.739 61.7007 94.7288 61.7155 94.7146 61.7258C94.7005 61.7361 94.6833 61.7413 94.6659 61.7407C94.6484 61.7401 94.6317 61.7336 94.6183 61.7223C94.605 61.711 94.5959 61.6955 94.5924 61.6784L92.1309 47.8544C91.7984 46.1076 90.6278 45.1557 88.4959 45.1557C86.9858 45.1557 85.6115 45.9661 85.9084 47.2705L90.3313 66.7928C90.7464 68.6303 92.3974 69.763 94.4415 69.763C96.571 69.763 98.2626 68.5601 98.7234 66.7928L101.172 56.4569L103.619 66.7928C104.082 68.5601 105.771 69.763 107.903 69.763C109.944 69.763 111.593 68.6303 112.011 66.7928L116.436 47.2705C116.728 45.9661 115.357 45.1557 113.846 45.1557Z" fill="black"/>
<path d="M69.6733 45.1501C61.3793 45.1501 57.0449 50.7095 57.0449 57.56C57.0449 64.4109 61.3793 69.9741 69.6733 69.9741C77.9698 69.9741 82.302 64.4109 82.302 57.56C82.302 50.7095 77.9698 45.1501 69.6733 45.1501ZM69.6733 64.4474C66.1368 64.4474 63.5313 61.8851 63.5313 57.56C63.5313 53.2408 66.1368 50.673 69.6733 50.673C73.2122 50.673 75.8152 53.2408 75.8152 57.56C75.8152 61.8851 73.2122 64.4474 69.6733 64.4474Z" fill="black"/>
<path d="M51.1369 62.4537C48.7957 64.6486 45.0203 65.1424 42.7673 64.84C39.5629 64.4164 36.4846 62.4128 36.4846 57.56C36.4846 53.2408 39.0922 50.673 42.6287 50.673C44.99 50.673 46.4903 51.4384 48.1917 52.7723C50.3008 54.4283 53.08 52.2686 52.7529 50.2255C52.398 47.9641 48.2927 45.1501 42.6287 45.1501C34.3351 45.1501 30 50.7095 30 57.56C30 64.0239 33.8264 69.9741 43.2281 69.9741C48.1917 69.9741 51.7609 67.9255 52.2745 65.1424C52.3575 64.6325 52.2947 64.1096 52.0934 63.634C51.8922 63.1583 51.5606 62.7491 51.1369 62.4537Z" fill="black"/>
</g>
<defs>
<clipPath id="clip0_7_2759">
<rect width="139.552" height="32.0049" fill="white" transform="translate(30 45)"/>
</clipPath>
</defs>
</svg>
