<svg width="200" height="114" viewBox="0 0 200 114" fill="none" xmlns="http://www.w3.org/2000/svg">
<g clip-path="url(#clip0_6153_5647)">
<path d="M142.246 71.054C139.022 71.054 136.304 73.6683 136.304 77.9901C136.304 82.3118 138.949 84.8906 142.898 84.8906C146.015 84.8906 147.645 83.5105 147.826 83.4014C147.826 83.4014 147.536 82.8928 147.427 82.7482C146.993 82.0213 146.486 81.8044 145.942 81.8044C144.819 81.8044 144.71 82.2763 143.189 82.2763C140.616 82.2763 139.71 80.2429 139.673 78.8983H148.297V77.881C148.297 73.7774 145.906 71.0527 142.246 71.0527M139.638 76.5021C139.638 74.9774 140.725 73.5972 142.174 73.5972C143.841 73.5972 144.782 75.0141 144.782 76.5021H139.638Z" fill="black"/>
<path d="M183.985 71.127C180.797 71.127 178.08 73.7425 178.08 78.0275C178.08 82.3125 180.688 84.8913 184.601 84.8913C187.754 84.8913 189.348 83.5112 189.529 83.4021C189.529 83.4021 189.239 82.8935 189.166 82.7488C188.732 82.0588 188.224 81.8051 187.681 81.8051C186.558 81.8051 186.413 82.2769 184.928 82.2769C182.355 82.2769 181.485 80.2435 181.413 78.9357H190V77.9184C190 73.8149 187.645 71.127 183.985 71.127ZM181.413 76.5383C181.413 75.0491 182.464 73.6335 183.949 73.6335C185.579 73.6335 186.486 75.0859 186.522 76.5383H181.413Z" fill="black"/>
<path d="M97.0652 84.7461C93.0067 84.7461 90.5793 82.095 90.5793 77.9914C90.5793 73.8879 92.9712 71.2012 97.0652 71.2012C101.159 71.2012 103.514 73.9246 103.514 77.9914C103.514 81.8413 101.305 84.7461 97.0652 84.7461ZM97.0652 82.2041C99.0939 82.2041 100.218 80.4967 100.218 77.9914C100.218 75.4861 99.0939 73.742 97.0652 73.742C95.0365 73.742 93.8773 75.4849 93.8773 77.9914C93.8773 80.4979 94.9999 82.2041 97.0652 82.2041Z" fill="black"/>
<path d="M127.029 81.2239C126.775 81.4053 125.544 82.1677 123.877 82.1677C121.558 82.1677 119.927 80.3513 119.927 77.9551C119.927 75.3039 121.812 73.7424 123.877 73.7424C125 73.7424 125.472 74.0697 126.195 74.0697C126.993 74.0697 127.391 73.7069 127.79 72.9445C128.008 72.5081 128.152 72.2544 128.152 72.2544C127.971 72.1453 126.268 70.9834 123.369 70.9834C119.094 70.9834 116.558 74.0697 116.558 77.9563C116.558 82.2413 119.456 84.9292 123.369 84.9292C126.195 84.9292 127.899 83.7672 128.189 83.549L127.029 81.2252V81.2239Z" fill="black"/>
<path d="M175.761 81.2239C175.507 81.4053 174.311 82.1677 172.609 82.1677C170.326 82.1677 168.659 80.3513 168.659 77.9551C168.659 75.3039 170.544 73.7424 172.609 73.7424C173.731 73.7424 174.202 74.0697 174.927 74.0697C175.725 74.0697 176.159 73.7069 176.557 72.9445C176.74 72.5081 176.884 72.2544 176.884 72.2544C176.703 72.1453 175 70.9834 172.101 70.9834C167.826 70.9834 165.29 74.0697 165.29 77.9563C165.29 82.2413 168.188 84.9292 172.101 84.9292C174.927 84.9292 176.631 83.7672 176.921 83.549L175.761 81.2252V81.2239Z" fill="black"/>
<path d="M151.015 75.5946V84.3827H154.312V75.2306C154.493 75.0859 155.652 73.9595 156.957 73.9595C158.659 73.9595 159.565 75.1938 159.565 76.7921V84.3827H162.862V75.9574C162.862 71.9629 159.783 71.0547 158.044 71.0547C155.978 71.0547 154.529 72.3625 154.094 72.7976C153.95 72.2534 153.297 71.3452 151.884 71.3452C151.377 71.3452 150.689 71.491 150.652 71.5266C150.724 72.0352 151.015 73.1972 151.015 75.5946Z" fill="black"/>
<path d="M88.0431 67.5314C88.0431 68.621 87.137 69.4925 86.0144 69.4925C84.8919 69.4925 84.0212 68.621 84.0212 67.5314C84.0212 66.4418 84.8907 65.5703 86.0144 65.5703C87.1382 65.5703 88.0431 66.4418 88.0431 67.5314Z" fill="black"/>
<path d="M87.6458 71.4902H84.3845V84.491H87.6458V71.4902Z" fill="black"/>
<path d="M134.094 67.5314C134.094 68.621 133.224 69.4925 132.102 69.4925C130.979 69.4925 130.073 68.621 130.073 67.5314C130.073 66.4418 130.978 65.5703 132.102 65.5703C133.225 65.5703 134.094 66.4418 134.094 67.5314Z" fill="black"/>
<path d="M133.696 71.4902H130.472V84.491H133.696V71.4902Z" fill="black"/>
<path d="M81.5586 78.0637C81.5586 73.3056 78.4416 71.054 74.855 71.054C73.6591 71.054 72.6454 71.3445 72.572 71.3813V67.7496C72.572 65.6794 71.2685 64.6621 69.7461 64.6621H69.2031V84.0192C69.6018 84.1283 71.7393 84.8539 74.6019 84.8539C78.9857 84.8539 81.5586 82.0582 81.5586 78.0624M77.9708 77.9546C77.9708 80.7871 76.1952 82.1305 74.1666 82.1305C73.3338 82.1305 72.7542 81.9491 72.572 81.9123V73.9956C72.7542 73.9589 73.3693 73.8142 74.1666 73.8142C76.3762 73.8142 77.9708 75.2667 77.9708 77.9546Z" fill="black"/>
<path d="M109.637 84.9281C107.464 84.9281 105.833 84.3472 104.746 83.6571L105.833 81.1874C106.811 81.8774 108.079 82.3861 109.384 82.3861C110.761 82.3861 111.63 81.8051 111.63 80.9337C111.63 79.9163 110.145 79.4089 109.022 78.9358C107.391 78.2825 105.543 77.4466 105.543 74.9769C105.543 72.6897 107.391 71.0547 110.58 71.0547C112.935 71.0547 114.602 71.8171 114.711 71.8538C114.711 71.8538 114.602 72.2534 114.528 72.398C114.421 72.8711 114.058 73.9963 112.971 73.9963C112.21 73.9963 111.739 73.6335 110.543 73.6335C109.456 73.6335 108.804 74.1054 108.804 74.8322C108.804 75.7405 109.964 76.1033 111.304 76.6475C112.826 77.2284 115 78.3548 115 80.7878C115 83.7662 112.5 84.9281 109.637 84.9281Z" fill="black"/>
<path d="M49.8188 35.2461C47.8989 35.6101 45.0718 37.353 45.1084 40.4037C45.1084 43.1995 47.3548 44.8701 47.3915 48.5018C47.3915 51.2253 45.869 53.0785 44.239 54.0946C44.9275 54.059 45.6159 53.9855 46.4132 53.9855C48.0799 53.9855 49.0936 54.1669 49.167 54.1669L57.6815 43.6714C55.2897 40.1488 52.5359 37.3898 49.8188 35.2461Z" fill="black"/>
<path d="M56.9566 63.5722C58.0437 61.9029 58.1525 59.2149 58.2614 56.4915C58.3702 53.985 58.8765 52.0607 62.2832 52.0607C63.0072 52.0607 63.7323 52.1697 65.0358 52.1697C70.0005 52.133 73.2251 50.4268 75.2171 49.3004C71.1231 46.6861 65.1092 43.9982 57.6818 43.6709C57.1743 45.051 53.4055 55.5833 53.1157 56.4179C53.1891 56.4547 53.8409 57.2171 54.6736 58.6695C55.8695 60.6306 56.5213 62.338 56.9566 63.5722Z" fill="black"/>
<path d="M38.9491 54.966C38.515 54.966 38.3328 54.6755 38.2607 54.2036C38.1885 53.695 36.0865 34.1564 35.7612 31.2148C35.7246 30.7797 35.6157 29.9805 35.6157 29.6901C35.6157 29.2182 35.9055 29 36.232 29C37.2458 29 42.7534 30.271 48.5875 34.3746C46.9208 34.8833 43.8771 36.6262 43.8771 40.2579C43.9126 43.4544 46.1956 45.2341 46.1956 48.4662C46.2323 53.695 40.2172 54.966 38.9491 54.966Z" fill="black"/>
<path d="M57.4641 64.953C57.5363 65.208 57.6451 65.4261 57.7172 65.5708C57.8628 65.7889 58.007 65.898 58.2247 65.898C58.3702 65.898 58.5512 65.8257 58.7322 65.7522C59.1663 65.534 76.9572 57.2545 79.6376 56.0203C80.0363 55.8021 80.7969 55.4748 81.0145 55.3302C81.2676 55.1844 81.3765 55.003 81.3765 54.7848C81.3765 54.6402 81.341 54.5311 81.3043 54.422C80.9424 53.8766 79.239 52.0613 76.3409 50.0635C74.0579 51.299 70.5068 53.26 65.1814 53.2956C63.8766 53.2956 63.5868 53.1865 62.7174 53.1865C60.1091 53.2233 59.4561 54.3129 59.3839 56.6012C59.3485 57.0364 59.3485 57.6173 59.3118 58.2351C59.2397 60.2685 58.9853 63.101 57.4641 64.953Z" fill="black"/>
<path d="M20.5077 70.0733C18.5145 69.1651 16.8845 68.4027 16.8845 66.878C16.8845 65.716 17.8261 64.8801 19.6383 64.8801C20.3268 64.8801 20.8697 64.9524 21.4493 65.0615C21.7391 65.0983 22.0656 65.1706 22.3187 65.1706C23.9133 65.1706 24.8194 64.19 25.4345 62.3748L25.6889 61.648C25.4345 61.5389 22.7895 60.377 19.384 60.377C13.9497 60.377 11.0871 63.864 11.0871 67.4945C11.0871 69.3109 11.6667 70.6543 12.5728 71.6716C13.7321 73.0149 15.3621 73.8864 16.8845 74.6487C19.1308 75.7384 21.1595 76.5731 21.1595 78.2081C21.1595 79.6605 19.6383 80.4597 17.6451 80.4597C14.928 80.4597 12.5361 78.8982 12.2463 78.7168L10 82.9294C10.3986 83.1476 13.2967 84.9996 18.0437 84.9996C23.116 84.9996 26.9202 82.058 26.9202 77.5916C26.9202 73.1252 23.3692 71.4914 20.5077 70.0745V70.0733Z" fill="black"/>
<path d="M40.3261 72.1804L49.4924 60.8857H42.9344L35.6158 70.6189H35.5069V60.8857H30.1082V84.7816H30.4346C32.7898 84.7816 35.5436 83.7287 35.5436 79.8065V74.3229H35.6524L43.1154 84.4911H49.9999L40.3261 72.1804Z" fill="black"/>
</g>
<defs>
<clipPath id="clip0_6153_5647">
<rect width="180" height="56" fill="white" transform="translate(10 29)"/>
</clipPath>
</defs>
</svg>
