<svg width="200" height="114" viewBox="0 0 200 114" fill="none" xmlns="http://www.w3.org/2000/svg">
<g clip-path="url(#clip0_7_2611)">
<path d="M127.206 77.0476C124.991 76.858 123.817 75.309 122.924 73.4637L122.894 66.7613L122.863 60.059C123.333 57.6281 125.113 56.3027 127.447 55.8763L133.601 55.8779L139.756 55.8794C142.257 56.2735 143.739 57.9122 144.241 60.321V72.5796C143.963 75.0038 142.318 76.3213 140.159 77.0886L133.961 77.1059L127.762 77.1232L127.206 77.0476ZM139.188 71.7226L139.312 71.0448L139.282 66.184L139.252 61.3235C139.066 61.1371 138.88 60.9509 138.693 60.7645L133.684 60.7368L128.674 60.7084L128.106 60.9443L127.813 61.5106V71.6146L128.402 72.2039H138.707L139.188 71.7226ZM45.2898 68.298L45.3213 59.7563L45.5361 59.1267C46.1156 57.1645 47.7928 56.1717 49.652 55.6769C51.7591 55.4772 53.1417 56.4045 54.5213 57.8788L56.2674 61.4379L58.0135 64.9972L59.1899 67.3657L60.3663 69.7342L61.7238 66.9626L63.0813 64.1909L64.6428 61.0161L66.2041 57.8413C67.4835 56.27 69.0652 55.6744 71.0271 55.6744C73.2995 56.069 74.5389 57.5257 75.3528 59.5547L75.3811 68.1972L75.4094 76.8398H70.4646V61.938C70.2378 61.6694 70.1691 61.625 69.8561 61.7453L67.7814 65.9415L65.7068 70.1377L64.6495 72.2763L63.5924 74.4142C62.7978 75.5576 61.7521 75.9522 60.458 76.2716C59.0211 76.1998 58.165 75.5361 57.1902 74.5648L54.0154 68.1585L50.8406 61.7522L50.6006 61.6042L50.3071 61.8476V76.8401H45.2583L45.2898 68.298ZM78.6283 71.0659V65.292C79.149 62.4782 81.2044 61.2224 83.0731 61.0164H92.5956C95.2381 61.5116 96.6076 63.3446 96.9679 65.9046L96.9698 71.3724L96.9717 76.8401H91.9323V66.4703L91.446 65.9046L87.8649 65.876L84.2838 65.847L83.6173 66.4423L83.5893 71.6413L83.5616 76.8401H78.6283V71.0659ZM99.7937 74.4209V72.002H114.995L115.53 71.3657C115.484 71.0073 115.291 70.7176 115.086 70.4939L113.45 70.002L108.209 68.4706L102.969 66.9399C100.883 66.0013 99.4882 64.0917 99.4929 61.7761L99.4945 61.0665C100.184 58.2284 101.581 57.0398 104.077 56.1279L111.914 56.0977L119.75 56.0675V60.9116L112.501 60.9387L105.253 60.9657C104.953 61.2297 104.733 61.3676 104.733 61.772C104.675 62.1462 104.938 62.282 105.186 62.5144L111.082 64.2375L116.978 65.961C119.219 66.8618 120.648 68.722 120.674 71.1579C120.768 73.8098 118.696 76.533 115.877 76.8398H99.794L99.7937 74.4209ZM147.063 68.7402V60.6413C147.345 58.236 148.981 56.8716 151.145 56.1286L169.715 56.1015L188.285 56.0741V60.9141L183.926 60.9402L179.567 60.9664L179.541 68.9034L179.516 76.8404H174.578V60.916L163.819 60.9216L153.06 60.9276L152.354 61.1679L152.002 61.8735V64.8467H165.306V69.6832L158.679 69.709L152.052 69.7349L152.026 73.2876L151.999 76.8404H147.063V68.7409V68.7402ZM11 43.3783V37.029H13.7178L13.7449 39.5235L13.7717 42.018L16.7181 42.0448L19.6643 42.0716L19.6913 39.5755L19.7181 37.0794H22.4394L22.4655 43.4039L22.4913 49.7283H19.6677V44.4873H13.7213V49.7283H11V43.3783ZM28.6378 47.3635V44.9991L26.068 41.0391L23.498 37.0791L25.0309 37.0514L26.8157 36.9998C27.3524 37.9027 27.8901 38.9333 28.4403 39.8388L30.0992 42.5705H30.2L31.7622 39.9815C32.3896 39.0205 32.9228 37.9248 33.5165 37.0221L35.2044 37.0505L36.7817 37.0791L34.1713 41.0993L31.5606 45.1191V49.7279H28.6378V47.3635ZM37.8094 43.3831V37.0287H40.5291L40.555 42.1437L40.5811 47.2587L43.3764 47.2857L46.1717 47.3125L46.578 46.9062V37.029H49.3074L49.2781 42.4968L49.2488 47.9645C48.9521 48.9176 48.3934 49.2747 47.5354 49.6779L42.6724 49.7075L37.8094 49.7371V43.3831ZM51.8189 43.3724V37.0168L56.5811 37.0546L61.3433 37.0924C62.3855 37.3235 62.9345 38.0127 63.2069 38.9947L63.2076 44.3616L63.2082 49.7286H60.4869V39.7903L60.245 39.5484H54.5405V49.7279H51.8192V43.372L51.8189 43.3724ZM65.7521 43.4039L65.778 37.0794H75.1512C76.4532 37.3062 76.8838 38.0492 77.2274 39.2309L77.1972 43.6479L77.1669 48.065C76.7597 49.1075 76.0762 49.4275 75.0643 49.7279H65.7263L65.7521 43.4039ZM74.4961 46.9953V39.939L74.2876 39.549H68.5493V47.3097H74.0479L74.4957 46.996L74.4961 46.9953ZM79.5553 44.3106L79.5858 38.8933C79.9065 37.8807 80.4904 37.509 81.4 37.0791L86.2126 37.047L91.0252 37.0149V49.7279H88.3039V45.6964H82.3575V49.7279H79.5244L79.5553 44.3106ZM88.2813 41.3878L88.3087 39.5484H82.5994L82.3575 39.7903V43.2807L85.3055 43.2539L88.2535 43.2272L88.2813 41.3878ZM93.8472 43.3783V37.029H96.7701V49.7283H93.8472V43.3783Z" fill="black"/>
</g>
<defs>
<clipPath id="clip0_7_2611">
<rect width="177.285" height="40.1231" fill="white" transform="translate(11 37)"/>
</clipPath>
</defs>
</svg>
