<svg width="200" height="114" viewBox="0 0 200 114" fill="none" xmlns="http://www.w3.org/2000/svg">
<g clip-path="url(#clip0_7_12)">
<g clip-path="url(#clip1_7_12)">
<path d="M46.615 45.3576V68.9633H62.4076V64.8612H51.4672V58.8061H61.6599V54.8001H51.4672V49.3951L62.0179 49.3961V45.3576H46.615ZM64.2577 68.9628H69.011V45.2601H64.2577V68.9628ZM85.8153 60.1021C85.8153 55.4129 83.6992 52.1294 78.4569 52.1294C73.2145 52.1294 70.4783 55.2547 70.4783 60.6596C70.4783 66.3906 72.5648 69.3539 78.6835 69.3539C81.5817 69.3539 84.2509 68.4751 85.5232 67.6299L84.6425 64.5351C83.2426 65.2508 81.1911 65.7734 79.5316 65.7734C77.8722 65.7734 76.6344 65.2853 76.1108 64.7307C75.4931 64.0484 75.2005 62.9407 75.2005 61.7999H85.8148V60.1026L85.8153 60.1021ZM81.1581 58.7721H75.201C75.267 56.494 76.3714 55.3857 78.3263 55.3857C80.4793 55.3857 81.1581 56.7856 81.1581 58.7721ZM101.502 54.309C100.362 53.1357 98.1477 52.2245 95.6726 52.2245C89.9091 52.2245 87.1759 54.8292 87.1759 60.8518C87.1759 66.8744 89.3574 69.4145 95.5105 69.4145C98.0497 69.4145 100.232 68.7968 101.437 68.0486L100.46 64.7908C99.2545 65.3779 97.7251 65.8001 95.9351 65.8001C93.3959 65.8001 91.767 64.4012 91.767 60.9163C91.767 57.1413 93.1674 55.7399 95.7061 55.7399C97.1065 55.7399 98.3093 56.3261 99.0915 57.0428L101.502 54.3085V54.309ZM115.584 52.5515H110.081V48.6144L105.425 49.383V52.5515H102.592V56.2334H105.425V63.4608C105.425 67.791 106.76 69.3539 110.536 69.3539C112.653 69.3539 114.671 68.8982 116.233 68.052L115.55 64.6647C114.542 65.1868 113.206 65.4794 112.262 65.4794C110.666 65.4794 110.08 64.9573 110.08 62.8756V56.2649H115.584V52.5515H115.584ZM117.922 52.5515V68.9628H122.641V57.6648C123.456 56.624 124.952 55.9728 126.482 55.9728C127.332 55.9728 128.274 56.1999 128.795 56.4935L129.871 52.683C129.153 52.2934 127.95 52.1294 126.843 52.1294C125.247 52.1294 123.27 52.8461 122.26 54.1824L122.26 52.5515H117.921H117.922ZM137.998 52.1294C132.007 52.1294 129.465 54.9621 129.465 60.6921C129.465 66.0655 131.291 69.3539 137.314 69.3539C143.336 69.3539 145.875 66.5861 145.875 60.8561C145.875 55.1261 144.054 52.1294 137.998 52.1294M141.09 60.5631C141.09 64.34 140.374 65.935 137.412 65.935C134.937 65.935 134.254 64.0135 134.254 60.7261C134.254 57.0136 135.033 55.5478 137.9 55.5478C140.538 55.5478 141.09 57.5028 141.09 60.5631M147.573 52.5515V68.9628H152.293V56.8841C152.881 56.46 154.053 56.0369 155.031 56.0369C157.341 56.0369 157.83 56.9491 157.83 58.7711V68.9628H162.55V57.6342C162.55 54.3444 161.377 52.1633 157.437 52.1633C155.615 52.1633 153.688 52.618 151.997 53.6627V52.5515H147.573ZM164.857 49.0031H169.644V45.1955H164.857V49.0031ZM164.893 68.9628H169.613V52.5525H164.893V68.9628ZM185.535 54.2459C184.394 53.0746 182.18 52.1633 179.705 52.1633C173.943 52.1633 171.208 54.7671 171.208 60.7897C171.208 66.8123 173.391 69.3534 179.543 69.3534C182.081 69.3534 184.265 68.7347 185.469 67.9855L184.491 64.7297C183.288 65.3168 181.757 65.7389 179.966 65.7389C177.427 65.7389 175.799 64.34 175.799 60.8552C175.799 57.0792 177.199 55.6788 179.738 55.6788C181.139 55.6788 182.342 56.264 183.125 56.9807L185.536 54.2454L185.535 54.2459ZM200.414 53.5962C198.49 52.7165 196.637 52.1638 193.968 52.1638C189.376 52.1638 186.935 54.1159 186.935 57.1456C186.935 60.1754 188.92 61.6378 191.46 62.223L193.316 62.6471C194.975 63.0057 196.018 63.5593 196.018 64.3721C196.018 65.3823 194.975 65.9034 193.48 65.9034C191.591 65.9034 189.376 65.2838 188.009 64.5036L186.803 67.889C188.464 68.7697 190.548 69.4199 193.445 69.4199C197.842 69.4199 200.544 67.6939 200.544 64.0785C200.544 61.6699 199.046 60.3035 197.061 59.7173C196.507 59.5543 195.497 59.2607 194.781 59.0996C193.055 58.7406 191.33 58.38 191.33 57.0801C191.33 56.1034 192.371 55.5818 194.064 55.5818C195.953 55.5818 197.775 56.0709 199.077 56.7866L200.414 53.5967V53.5962Z" fill="black"/>
<path d="M6.76063 69.0201H16.7946V64.4114H5.46702V45.3528H0V69.0201H6.76063Z" fill="black"/>
<path d="M28.8238 59.9993H33.2767V64.1368C32.4562 64.4507 30.8554 64.7627 29.3308 64.7627C24.4097 64.7627 22.7687 62.2623 22.7687 57.1854C22.7687 52.1085 24.3306 49.4922 29.2513 49.4922C31.9874 49.4922 33.5499 50.3496 34.8376 51.9906L38.2371 48.8672C36.1652 45.8991 32.5343 45 29.1358 45C21.4809 45 17.4574 49.1783 17.4574 57.1452C17.4574 65.1121 21.0893 69.3709 29.0965 69.3709C32.7672 69.3709 36.3608 68.4339 38.3148 67.0661V55.5847H28.8233V59.9988L28.8238 59.9993Z" fill="black"/>
</g>
</g>
<defs>
<clipPath id="clip0_7_12">
<rect width="200" height="114" fill="white"/>
</clipPath>
<clipPath id="clip1_7_12">
<rect width="200.544" height="24.4194" fill="white" transform="translate(0 45)"/>
</clipPath>
</defs>
</svg>
