<svg width="200" height="114" viewBox="0 0 200 114" fill="none" xmlns="http://www.w3.org/2000/svg">
<path d="M90.8929 61.2286L95.9857 54.9572H90.0214C87.8143 54.9572 85.65 55.4643 84.0786 56.8429L83.6286 57.4V37H77.5714C76.15 37 75 38.1572 75 39.5857V77.65H81.0571C82.4786 77.65 83.6357 76.4929 83.6357 75.0643V64.9357L88.5429 70.9571L92.7143 76.0929C93.5571 77.15 94.6643 77.6429 95.8 77.6429H104.25L98.7857 70.9357L90.9 61.2286H90.8929ZM115.071 68.1357V54.9572H106.421V69.7572C106.421 74.4214 109.643 77.6429 114.314 77.6429H120.964C122.386 77.6429 123.55 76.4857 123.55 75.0571V70.4571H117.386C116.107 70.4571 115.071 69.4143 115.071 68.1357ZM124.993 50.3071V44.5714L124.457 45.1357C124.443 45.15 122.814 46.8072 118.157 46.8072H115.071V37H109.014C107.593 37 106.429 38.1572 106.429 39.5786V46.8072H96.1357C92.6571 46.8072 91.0286 48.2214 89.7714 49.75L84.7143 55.9857C84.7143 55.9857 87.1071 53.7214 90.6143 53.7214H118.157C121.171 53.7214 123.243 53.1286 124.3 51.9643C125.057 51.1286 124.993 50.3143 124.993 50.3071Z" fill="black"/>
</svg>
