<svg width="200" height="114" viewBox="0 0 200 114" fill="none" xmlns="http://www.w3.org/2000/svg">
<path d="M149.906 49.1676C153.437 49.1676 156.212 50.3143 158.224 52.6064C160.239 54.8999 161.247 58.1844 161.247 62.4598C161.247 66.6732 160.248 69.9123 158.248 72.1741C156.251 74.4343 153.468 75.566 149.906 75.566C146.375 75.566 143.601 74.4343 141.588 72.1741C139.573 69.9123 138.566 66.6732 138.566 62.4598C138.566 58.1844 139.579 54.8999 141.61 52.6064C143.64 50.3143 146.406 49.1676 149.906 49.1676ZM149.906 52.6064C147.676 52.6064 145.964 53.443 144.772 55.1162C143.576 56.7895 142.98 59.2373 142.98 62.4598C142.98 65.652 143.576 68.0605 144.772 69.6869C145.964 71.3132 147.676 72.1272 149.906 72.1272C152.167 72.1272 153.894 71.3132 155.09 69.6869C156.282 68.0605 156.878 65.652 156.878 62.4598C156.878 59.2373 156.282 56.7895 155.09 55.1162C153.894 53.443 152.167 52.6064 149.906 52.6064ZM113.603 68.177C113.603 65.6051 114.462 63.6444 116.181 62.2979C117.903 60.9499 120.402 60.2752 123.688 60.2752H128.614V58.6488C128.614 54.7138 126.88 52.747 123.409 52.747C122.293 52.747 121.125 52.9014 119.9 53.2115C118.674 53.5216 117.552 53.909 116.532 54.3734L115.276 51.3522C116.547 50.6396 117.918 50.0904 119.388 49.7016C120.859 49.3158 122.293 49.1207 123.688 49.1207C129.697 49.1207 132.705 52.328 132.705 58.7411V75.0077H129.543L129.031 72.2194C127.761 73.2422 126.408 74.0319 124.965 74.5901C123.524 75.1484 122.154 75.4268 120.853 75.4268C118.589 75.4268 116.816 74.7838 115.53 73.4979C114.244 72.2119 113.603 70.4388 113.603 68.177ZM121.627 71.988C122.211 71.988 122.822 71.9108 123.455 71.755C124.087 71.6007 124.72 71.3994 125.352 71.1514C125.984 70.9032 126.577 70.6007 127.134 70.2451C127.688 69.8881 128.181 69.5083 128.614 69.1059V63.1572H124.172C121.918 63.1572 120.275 63.5446 119.243 64.3191C118.208 65.0937 117.694 66.3177 117.694 67.9909C117.694 70.6551 119.004 71.988 121.627 71.988ZM93.7357 75.0077H89.4602V39.0826L93.7357 38.1522V75.0077ZM105.167 48.9361L108.514 51.3522L100.289 61.6701L109.815 73.103L106.517 75.6598L95.2697 61.9015L105.167 48.9361ZM62.7487 68.177C62.7487 65.6051 63.608 63.6444 65.3296 62.2979C67.0483 60.9499 69.5506 60.2752 72.8336 60.2752H77.7625V58.6488C77.7625 54.7138 76.0258 52.747 72.5552 52.747C71.4417 52.747 70.2707 52.9014 69.0483 53.2115C67.8229 53.5216 66.7003 53.909 65.6776 54.3734L64.4219 51.3522C65.6927 50.6396 67.0634 50.0904 68.537 49.7016C70.0075 49.3158 71.4417 49.1207 72.8336 49.1207C78.8458 49.1207 81.8504 52.328 81.8504 58.7411V75.0077H78.6914L78.1801 72.2194C76.9093 73.2422 75.5537 74.0319 74.1135 74.5901C72.6732 75.1484 71.3025 75.4268 69.9984 75.4268C67.7381 75.4268 65.965 74.7838 64.6791 73.4979C63.3931 72.2119 62.7487 70.4388 62.7487 68.177ZM70.773 71.988C71.36 71.988 71.9682 71.9108 72.6006 71.755C73.233 71.6007 73.8653 71.3994 74.4978 71.1514C75.1301 70.9032 75.7262 70.6007 76.2799 70.2451C76.8367 69.8881 77.3299 69.5083 77.7625 69.1059V63.1572H73.3177C71.0665 63.1572 69.4235 63.5446 68.3887 64.3191C67.3569 65.0937 66.8395 66.3177 66.8395 67.9909C66.8395 70.6551 68.1496 71.988 70.773 71.988ZM42.8814 75.0077H38.606V39.0826L42.8814 38.1522V75.0077ZM54.3158 48.9361L57.6623 51.3522L49.4352 61.6701L58.9634 73.103L55.6623 75.6598L44.4154 61.9015L54.3158 48.9361Z" fill="black"/>
</svg>
