<svg width="200" height="114" viewBox="0 0 200 114" fill="none" xmlns="http://www.w3.org/2000/svg">
<path d="M26.0518 39C36.0246 39 44.1104 47.0789 44.1104 57.0518C44.1103 67.0246 36.0246 75.1103 26.0518 75.1104C16.0854 75.1104 8.00001 67.0181 8 57.0518C8 47.0854 16.0789 39 26.0518 39ZM26.0518 41.9326C17.7248 41.9326 10.9395 48.7183 10.9395 57.0518C10.9395 61.0879 12.5132 64.8823 15.3672 67.7363C18.2212 70.5904 22.0221 72.165 26.0518 72.165C30.0814 72.165 33.8891 70.5969 36.7432 67.7363C39.5905 64.8823 41.1641 61.0878 41.1641 57.0518V56.3594H30.3691V57.7637H39.7207V57.9727C39.2374 65.098 33.2944 70.7471 26.0449 70.7471C22.3942 70.747 18.9524 69.3167 16.3662 66.7305C13.7735 64.1442 12.3496 60.7022 12.3496 57.0449C12.3497 53.3878 13.7736 49.9462 16.3662 47.3535C18.9524 44.7673 22.3942 43.3438 26.0449 43.3438C26.2082 43.3438 26.6007 43.3434 26.7705 43.3564V41.9453H26.7764C26.5869 41.9323 26.228 41.9326 26.0518 41.9326ZM25.333 49.1299V64.9609H30.3691V63.5439H26.7764V49.1299H25.333ZM20.2852 49.123C19.0834 49.123 18.123 50.09 18.123 51.2852C18.1232 52.4802 19.0901 53.4531 20.2852 53.4531C21.4801 53.4529 22.4529 52.4801 22.4531 51.2852C22.4531 50.0901 21.4867 49.1232 20.2852 49.123Z" fill="black"/>
<path d="M57.3484 45.0605H51.9146V68.5787H68.6078V64.0005H57.3484V45.0605Z" fill="black"/>
<path d="M80.5596 59.6186H84.9877V63.7332C84.1713 64.0401 82.5843 64.3536 81.0691 64.3536C76.1773 64.3536 74.5446 61.8718 74.5446 56.8234C74.5446 51.7749 76.099 49.1755 80.9842 49.1755C83.7011 49.1755 85.2554 50.0246 86.5355 51.6573L89.9121 48.5551C87.8548 45.6031 84.2431 44.7148 80.8666 44.7148C73.258 44.7148 69.261 48.8686 69.261 56.7842C69.261 64.6998 72.8726 68.9319 80.8274 68.9319C84.4783 68.9319 88.0507 67.9979 89.9904 66.6395V55.2298H80.5596V59.6186Z" fill="black"/>
<path d="M187.884 49.6324V44.708H183.737V57.8223H187.571C187.825 56.6271 187.877 55.2034 187.877 54.0931V53.0808H191.868V49.6324H187.877H187.884Z" fill="black"/>
<path d="M113.326 48.9336H111.614V44.7341H107.729V57.2802H111.203C111.49 56.4508 111.614 54.8703 111.614 53.9363V52.2252H113.326V58.1554H116.872C117.212 57.2214 117.316 55.334 117.316 54.1388V44.708H113.326V48.9336Z" fill="black"/>
<path d="M108.93 58.3184C102.817 58.3184 100.989 60.8524 100.989 63.7391C100.989 66.6258 102.817 69.1599 108.93 69.1599C115.043 69.1599 117.035 66.7042 117.035 63.7391C117.035 60.774 115.148 58.3184 108.93 58.3184ZM108.956 66.0903C106.462 66.0903 105.358 65.2216 105.358 63.7391C105.358 62.3676 106.455 61.4402 108.956 61.4402C111.458 61.4402 112.581 62.3676 112.581 63.7391C112.581 65.2216 111.51 66.0903 108.956 66.0903Z" fill="black"/>
<path d="M131.038 47.1173V44.3612H128.301C126.943 44.3612 124.899 44.0477 123.599 43.584L123.031 46.5164C124.585 46.9801 126.375 47.1107 128.007 47.1107H131.038V47.1173Z" fill="black"/>
<path d="M105.501 57.5356L107.5 54.2962C104.208 52.8463 102.961 50.9523 102.961 47.0141V45.1201H98.8921V47.0402C98.8921 51.4944 98.2128 53.519 94.6404 55.2367L96.0903 58.0058C98.239 57.2547 100.244 55.8506 101.276 54.0088C102.053 55.5893 103.895 57.0131 105.501 57.5356Z" fill="black"/>
<path d="M180.079 49.5281V45.1523H168.493V48.4701H175.801V49.92C175.801 52.1993 173.339 54.2762 167.742 56.5816L169.14 59.5075C176.892 56.2943 180.073 53.8321 180.073 49.5281" fill="black"/>
<path d="M153.57 64.948V59.5469H149.24V66.7114C149.24 68.1874 149.991 68.8862 151.467 68.8862H166.096V65.3856H154.001C153.661 65.3856 153.563 65.3072 153.563 64.948" fill="black"/>
<path d="M155.862 53.1069H161.094V62.0479H164.927C165.241 60.7808 165.417 58.5734 165.417 57.0712V44.708H161.087V49.6324H156.731V45.0737H145.073V48.3915H152.512V49.9981C152.512 52.2252 149.854 54.4784 144.361 56.7577L145.811 59.6053C151.16 57.3521 154.419 55.6017 155.862 53.1004" fill="black"/>
<path d="M128.458 65.8288V65.2998H139.306C139.75 64.6271 139.848 63.2752 139.848 62.0016V59.4219H124.337V61.9886H135.734V62.8833H124.337V67.3571C124.337 68.4216 124.827 68.9637 126.153 68.9637H140.599V66.188H128.896C128.556 66.188 128.458 66.1358 128.458 65.8223" fill="black"/>
<path d="M180.288 58.1035C174.613 58.1035 172.849 60.6963 172.849 63.6484C172.849 66.6004 174.613 69.1671 180.288 69.1671C185.964 69.1671 187.884 66.6787 187.884 63.6484C187.884 60.618 186.094 58.1035 180.288 58.1035ZM180.314 66.1628C178.192 66.1628 177.075 65.2811 177.075 63.6484C177.075 62.1201 178.192 61.16 180.314 61.16C182.437 61.16 183.58 62.1201 183.58 63.6484C183.58 65.2811 182.489 66.1628 180.314 66.1628Z" fill="black"/>
<path d="M139.855 44.708H135.734V54.7854C134.023 55.6409 131.58 55.9283 129.536 55.9283V55.2817C131.724 54.8507 132.697 53.7078 132.697 52.0815C132.697 51.6374 132.586 51.2325 132.39 50.8602H134.787V48.0845H119.713V50.8602H122.319C122.123 51.226 122.012 51.6374 122.012 52.0815C122.012 53.7535 123.07 54.9095 125.356 55.3144V55.9283H119.713V58.6517H128.314C131.169 58.6517 134.225 58.3382 135.727 57.5088V58.4689H139.848V53.551H143.551V50.0765H139.848V44.7145L139.855 44.708ZM125.722 51.9378C125.722 51.1607 126.251 50.7753 127.328 50.7753C128.406 50.7753 128.883 51.1607 128.883 51.9378C128.883 52.715 128.301 53.133 127.243 53.133C126.185 53.133 125.715 52.715 125.715 51.9378" fill="black"/>
</svg>
