<svg width="200" height="114" viewBox="0 0 200 114" fill="none" xmlns="http://www.w3.org/2000/svg">
<path d="M25.0594 53.4741C22.5149 52.2815 20.426 51.3148 20.426 49.3741C20.426 47.8815 21.6149 46.8 23.9668 46.8C24.8334 46.8 25.5408 46.9037 26.2668 47.037C26.6483 47.1 27.0557 47.1593 27.3964 47.1593C29.452 47.1593 30.6112 45.9333 31.3853 43.6074L31.7038 42.6593C31.3705 42.5259 28.0186 41.0482 23.6371 41.0482C16.6742 41.0482 13.0001 45.5111 13.0001 50.1482C13.0001 52.4889 13.7297 54.1815 14.8779 55.5148C16.352 57.2296 18.4557 58.3556 20.426 59.3148C23.2964 60.7222 25.8853 61.763 25.8853 63.8482C25.889 65.7037 23.9742 66.7519 21.4186 66.7519C17.9112 66.7519 14.8483 64.7482 14.4594 64.5074L11.5779 69.9C12.089 70.1889 15.8001 72.5407 21.9001 72.5407C28.4001 72.537 33.3186 68.8148 33.3186 63.0778C33.3186 57.3408 28.7594 55.2593 25.0594 53.4667V53.4741Z" fill="black"/>
<path d="M50.4853 56.137L62.2742 41.6815H53.8742L44.4668 54.1556H44.3224V41.6815H37.4001V72.3037H37.815C40.8076 72.3037 44.3742 70.9185 44.3742 65.9185V58.8852H44.5113L54.1001 71.9222H62.9113L50.4816 56.1333L50.4853 56.137Z" fill="black"/>
<path d="M183.126 54.9852C179.482 54.9852 177.611 57.3815 177.319 57.7482C176.4 56.0111 174.708 54.9852 172.489 54.9852C169.274 54.9852 167.456 56.8482 167.156 57.1482C167.022 56.6482 166.367 55.2889 164.296 55.2889C163.696 55.2889 162.822 55.4815 162.748 55.4963C162.833 55.8889 163.226 57.7852 163.226 60.4V71.9259H167.445V60.1741C167.53 60.1 169.108 58.5037 171.004 58.5037C172.9 58.5037 173.848 59.9222 173.848 61.8556V71.9259H178.082V60.1704C178.167 60.0889 179.715 58.5037 181.641 58.5037C183.567 58.5037 184.456 59.9222 184.456 61.8556V71.9259H188.708V61.2C188.708 57.4333 186.559 54.9852 183.13 54.9852H183.126Z" fill="black"/>
<path d="M136.863 68.8815C134 68.8815 131.952 66.6148 131.952 63.6556C131.952 60.3593 134.278 58.3926 136.863 58.3926C138.256 58.3926 138.841 58.8185 139.767 58.8185C140.756 58.8185 141.278 58.3407 141.767 57.3926C142.033 56.8667 142.193 56.563 142.193 56.563C141.985 56.4296 139.844 54.9778 136.222 54.9778C130.904 54.9778 127.719 58.7889 127.719 63.6556C127.719 68.963 131.359 72.2963 136.222 72.2963C139.744 72.2963 141.881 70.8593 142.259 70.5889L140.796 67.7C140.47 67.9074 138.963 68.8815 136.863 68.8815Z" fill="black"/>
<path d="M87.3372 61.8074C87.3372 59.9111 88.6668 58.1556 90.5298 58.1556C92.615 58.1556 93.7631 59.9667 93.7965 61.8074H87.3372ZM90.5928 54.9852C86.552 54.9852 83.1372 58.2741 83.1372 63.6593C83.1372 69.0445 86.4446 72.2963 91.3891 72.2963C95.315 72.2963 97.3557 70.5815 97.6002 70.4222C97.6002 70.4222 97.215 69.7963 97.1113 69.6259C96.5557 68.7222 95.9298 68.4333 95.2335 68.4333C93.8446 68.4333 93.6668 69.0074 91.7817 69.0074C88.5446 69.0074 87.4298 66.4852 87.3483 64.8037H98.1779V63.5482C98.1779 58.3815 95.2039 54.9852 90.5928 54.9852Z" fill="black"/>
<path d="M105.396 67.2592V50C105.396 48.0518 104.096 46.5444 102.078 46.5444H101.174V68.9555C101.174 71.0185 102.448 72.2963 104.67 72.2963C107.415 72.2963 108.233 70.3481 108.233 68.5148C108.119 68.5778 107.537 68.8148 106.952 68.8148C105.974 68.8148 105.396 68.2481 105.396 67.263V67.2592Z" fill="black"/>
<path d="M77.174 66.6741V58.4704H80.6999L81.9295 55.2926H77.174V50.3297C77.174 50.3297 76.7962 50.3297 76.7814 50.3297C74.9036 50.3297 72.9555 51.1297 72.9555 55.2556V55.2926H69.8333V58.4704H72.9555V68.1334C72.9555 70.8741 74.5703 72.2963 76.8703 72.2963C78.7295 72.2963 81.1221 71.7334 81.1221 68.0556C80.9777 68.1408 80.0814 68.7222 79.0925 68.7222C77.7184 68.7222 77.174 67.8852 77.174 66.6778V66.6741Z" fill="black"/>
<path d="M113.822 61.8074C113.822 59.9111 115.148 58.1556 117.011 58.1556C119.096 58.1556 120.245 59.9667 120.278 61.8074H113.822ZM117.07 54.9852C113.03 54.9852 109.622 58.2741 109.622 63.6593C109.622 69.0445 112.93 72.2963 117.874 72.2963C121.8 72.2963 123.83 70.5815 124.082 70.4222C124.082 70.4222 123.7 69.7963 123.593 69.6259C123.041 68.7222 122.411 68.4333 121.715 68.4333C120.322 68.4333 120.148 69.0074 118.259 69.0074C115.026 69.0074 113.904 66.4852 113.83 64.8037H124.652V63.5482C124.652 58.3815 121.678 54.9852 117.067 54.9852" fill="black"/>
<path d="M151.93 69.0482C154.519 69.0482 156.011 66.8222 156.011 63.6482C156.011 60.4741 154.556 58.2259 151.93 58.2259C149.304 58.2259 147.856 60.4333 147.856 63.6482C147.856 66.863 149.311 69.0482 151.93 69.0482ZM151.93 72.2963C146.763 72.2963 143.656 68.8852 143.656 63.6482C143.656 58.4111 146.722 54.9778 151.93 54.9778C157.137 54.9778 160.211 58.4259 160.211 63.6482C160.211 68.5778 157.378 72.2963 151.93 72.2963Z" fill="black"/>
</svg>
