<svg width="200" height="114" viewBox="0 0 200 114" fill="none" xmlns="http://www.w3.org/2000/svg">
<g clip-path="url(#clip0_7_2543)">
<path fill-rule="evenodd" clip-rule="evenodd" d="M134.276 64.4241L133.023 51.1174L125.876 64.4241H122.693L132.364 47.0374H135.52L137.476 64.4241H134.276ZM116.4 64.4241L116.48 51.4281L110.551 64.4241H107.289L107.84 47.0374H110.889L110.329 58.9841L115.777 47.0374H119.351L119.12 59.1788L124.151 47.0374H127.147L119.609 64.4241H116.4ZM101.573 64.4241H98.596L100.223 57.2414H94.3827L92.756 64.4241H89.7867L93.7773 47.0374H96.756L95.0573 54.3081H100.897L102.596 47.0374H105.564L101.573 64.4241ZM83.084 64.4241L85.7333 54.2721L79.804 64.4241H77.1827L75.5027 54.4508L72.764 64.4241H70L74.4707 47.0374H77.5107L79.404 59.7748L86.684 47.0374H90.7293L86.2493 64.4241H83.084ZM65.2533 64.4241L63.92 51.1174L56.8627 64.4241H53.6707L63.3427 47.0374H66.5067L68.4533 64.4241H65.2533ZM40 42.7441L43.2173 58.7521L45.8227 58.4148C45.6867 59.2814 45.84 60.1681 46.2573 60.9388C46.684 61.4974 47.364 61.7988 48.0627 61.7388C48.836 61.7734 49.5933 61.5174 50.1867 61.0188C50.7013 60.5921 51.0587 60.0028 51.2 59.3481C51.4493 58.6121 51.0613 57.8121 50.3293 57.5521C50.044 57.4108 49.3693 57.1614 48.32 56.7974C47.2613 56.5281 46.3187 55.9268 45.6267 55.0814C44.988 54.0321 44.808 52.7654 45.1293 51.5788C45.3187 50.6814 45.6933 49.8334 46.2307 49.0908C46.752 48.3401 47.456 47.7348 48.276 47.3308C49.1373 46.9174 50.084 46.7108 51.04 46.7254C52.72 46.7254 53.8933 47.2054 54.5333 48.1748C55.2147 49.3388 55.4067 50.7268 55.0667 52.0321L52.32 52.1574C52.444 51.4961 52.328 50.8108 51.9907 50.2281C51.5933 49.7881 51.008 49.5654 50.4173 49.6321C49.7107 49.6094 49.016 49.8321 48.4533 50.2641C48.1093 50.5334 47.8747 50.9174 47.796 51.3481C47.7 51.7094 47.764 52.0948 47.9733 52.4054C48.6 52.9908 49.3747 53.3921 50.2133 53.5708C51.16 53.8374 52.0533 54.2561 52.8627 54.8148C53.4147 55.2681 53.8013 55.8894 53.964 56.5841C54.1667 57.4988 54.1507 58.4494 53.92 59.3574C53.7067 60.3654 53.2853 61.3188 52.684 62.1574C52.124 62.9868 51.3587 63.6574 50.4627 64.1041C49.5053 64.5454 48.4587 64.7614 47.404 64.7348C46.24 64.8201 45.0893 64.4401 44.204 63.6774L47.1467 78.3068C76.364 71.8268 119.857 71.9508 151.751 78.0668L159.111 42.5028C120.996 33.7921 75.5107 33.7921 40 42.7441Z" fill="black"/>
</g>
<defs>
<clipPath id="clip0_7_2543">
<rect width="120" height="42.6667" fill="white" transform="translate(40 36)"/>
</clipPath>
</defs>
</svg>
