<svg width="200" height="114" viewBox="0 0 200 114" fill="none" xmlns="http://www.w3.org/2000/svg">
<g clip-path="url(#clip0_7_2623)">
<path d="M90.6151 45.5198C87.2221 45.5108 84.5613 46.4352 83.5427 48.2734C81.6569 51.6578 84.3986 59.6775 89.576 66.3342C94.7496 72.987 102.064 72.7702 106.099 65.5055C110.069 58.2564 107.3 50.3334 100.039 47.4756C96.7404 46.1753 93.4264 45.5273 90.6151 45.5198Z" fill="black"/>
<path d="M68.6076 27C66.0807 27.0093 63.4501 28.2678 61.1091 30.8784C55.6335 37.0588 56.5746 45.3962 63.0183 49.7953C69.4775 54.2059 76.7111 55.5419 79.2746 52.6802C81.8614 49.7952 80.9668 41.3725 77.4003 33.7322C75.3385 29.3197 72.0704 26.9871 68.6076 27Z" fill="black"/>
<path d="M77.447 58.9883C73.5707 58.9922 67.8977 65.2887 64.5984 73.049C61.303 80.8055 65.0514 87.0904 73.3616 87.0827C81.6253 87.0284 87.2017 80.7511 86.1678 73.0141C85.1339 65.2615 81.2884 58.9844 77.447 58.9883Z" fill="black"/>
<path d="M56.6832 52.8544C55.3666 52.8544 54.4797 53.6636 54.4797 54.8757V56.0916H57.6087C57.6087 56.0916 57.7131 66.4156 57.5931 67.496C57.4769 68.5803 57.2022 70.3383 55.266 71.2638C53.597 72.0577 53.5621 72.8129 53.4575 73.4828C53.3181 74.3541 53.4807 74.4624 54.112 74.3075C56.6019 73.6996 59.2468 72.7004 60.5866 70.2415C61.3108 68.9094 61.6012 67.4612 61.6012 65.2694V56.0916C62.9294 56.0762 63.8857 55.2282 63.8857 54.0703V52.8544H56.6832Z" fill="black"/>
<path d="M45.8174 52.3394C40.791 52.3394 37 56.2427 37 61.4162C37 66.5239 40.791 70.3731 45.8174 70.3731C50.6928 70.3731 53.2061 66.7757 53.2061 66.7757C53.2061 66.7757 52.1218 65.4165 50.6735 65.4165C49.992 65.4165 49.5194 65.7031 49.016 66.009C48.3151 66.4389 47.5174 66.9228 45.8174 66.9228C42.9596 66.9228 40.6323 64.456 40.6323 61.4162C40.6323 58.3144 42.9596 55.7897 45.8174 55.7897C47.3238 55.7897 48.1449 56.3008 48.8729 56.75C49.415 57.083 49.8835 57.3736 50.5147 57.3736C51.8004 57.3736 53.1403 55.9368 53.1403 55.9368C53.1403 55.9368 50.6076 52.3394 45.8174 52.3394Z" fill="black"/>
<path d="M148.007 52.8544C146.826 52.8544 145.997 53.4547 145.997 54.5777V69.8388H147.554C148.743 69.8388 149.567 69.2385 149.567 68.1154V59.4918L153.064 69.8466H153.785C154.71 69.8388 155.624 69.5018 155.868 68.7545L158.699 59.4918V69.8388H160.247C161.421 69.8388 162.257 69.2464 162.261 68.1311V52.8544H159.446C158.505 52.8544 157.816 53.226 157.552 53.927L154.234 64.1193L150.555 52.8544H148.007Z" fill="black"/>
<path d="M114.073 52.8544C113.182 52.8544 112.423 53.6366 112.423 54.5002V69.8466H124.029C124.924 69.8466 125.675 68.8744 125.675 67.9799V66.6402H117.636C116.303 66.6402 116.083 67.2946 116.083 67.2946V62.8569H123.649C124.54 62.8569 125.295 62.1056 125.295 61.2073V59.6544H117.636C116.303 59.6544 116.083 60.3089 116.083 60.3089V56.0376H124.029C124.924 56.0376 125.675 55.2863 125.675 54.3918V52.8544H114.073Z" fill="black"/>
<path d="M129.91 52.8544C129.089 52.8544 128.385 53.6366 128.385 54.5002V69.8466H130.429C131.25 69.8466 131.951 69.0412 131.951 68.2008V58.4655L140.424 69.8466H141.493C142.314 69.8466 143.019 69.0644 143.019 68.2008V52.8544H140.753C139.932 52.8544 139.448 53.687 139.448 54.5002V63.368L131.479 52.8544H129.91Z" fill="black"/>
</g>
<defs>
<clipPath id="clip0_7_2623">
<rect width="125.261" height="60.0827" fill="white" transform="translate(37 27)"/>
</clipPath>
</defs>
</svg>
