<svg width="200" height="114" viewBox="0 0 200 114" fill="none" xmlns="http://www.w3.org/2000/svg">
<g clip-path="url(#clip0_7_2595)">
<path d="M49.8963 44C42.8224 44 37.0889 49.7336 37.0889 56.81C37.0889 63.8865 42.8224 69.62 49.8963 69.62C56.9701 69.62 62.7063 63.8865 62.7063 56.81C62.7063 49.7336 56.9727 44 49.8963 44ZM49.8963 63.2124C46.358 63.2124 43.4913 60.3456 43.4913 56.8074C43.4913 53.2692 46.3607 50.4024 49.8963 50.4024C53.4319 50.4024 56.3039 53.2692 56.3039 56.8074C56.3039 60.3456 53.4345 63.2124 49.8963 63.2124Z" fill="black"/>
<path d="M127.806 44C120.732 44 114.998 49.7336 114.998 56.81C114.998 63.8865 120.732 69.62 127.806 69.62C134.88 69.62 140.616 63.8865 140.616 56.81C140.616 49.7336 134.88 44 127.806 44ZM127.806 63.2124C124.267 63.2124 121.401 60.3456 121.401 56.8074C121.401 53.2692 124.27 50.4024 127.806 50.4024C131.341 50.4024 134.213 53.2692 134.213 56.8074C134.213 60.3456 131.344 63.2124 127.806 63.2124Z" fill="black"/>
<path d="M20.7378 44.8629H10.2962C10.2175 44.8629 10.1415 44.8918 10.0838 44.9521C9.96313 45.0701 9.98411 45.2511 10.0838 45.3796C10.1835 45.5081 11.251 46.8799 11.251 46.8799C11.4608 47.1474 11.5264 47.2969 11.5264 47.714V68.4529C11.5264 68.6207 11.6601 68.7571 11.8306 68.7571H20.6041C29.2044 68.7571 34.2219 63.6373 34.2219 56.7418V56.6736C34.2219 49.7781 29.2752 44.8655 20.7404 44.8655L20.7378 44.8629ZM27.4287 56.8441C27.4287 60.8728 24.8006 63.1573 20.8401 63.1573H18.1438V50.4601H20.8401C24.798 50.4601 27.4287 52.7787 27.4287 56.7707V56.8415V56.8441Z" fill="black"/>
<path d="M112.845 63.4616C112.845 63.2937 112.711 63.1573 112.54 63.1573H112.373H100.866L112.567 49.9854C112.777 49.7152 112.842 49.5683 112.842 49.1513V45.1672C112.842 44.9993 112.706 44.8629 112.538 44.8629H92.4258C92.258 44.8629 92.1216 44.9993 92.1216 45.1672V50.1585C92.1216 50.3263 92.258 50.4601 92.4258 50.4601H103.694L91.9878 63.6347C91.778 63.9022 91.7124 64.0517 91.7124 64.4688V68.4555C91.7124 68.6234 91.8488 68.7597 92.0167 68.7597H112.538C112.706 68.7597 112.842 68.626 112.842 68.4555V63.4642L112.845 63.4616Z" fill="black"/>
<path d="M88.3028 45.1672C88.3028 44.9993 88.169 44.8629 87.9986 44.8629H80.3503C80.2743 44.8629 80.1956 44.8918 80.1379 44.9521C80.0198 45.0701 80.0408 45.2537 80.1379 45.3796C80.2349 45.5055 81.3077 46.8799 81.3077 46.8799C81.5175 47.1474 81.5831 47.2969 81.5831 47.714V58.3103C81.5831 61.6544 79.8441 63.2281 77.1819 63.2281C74.5197 63.2281 72.7781 61.5889 72.7781 58.1424V45.1672C72.7781 44.9993 72.6444 44.8629 72.4765 44.8629H64.8283C64.7496 44.8629 64.6735 44.8918 64.6158 44.9521C64.4978 45.0701 64.5214 45.2563 64.6158 45.3796C64.7102 45.5029 65.783 46.8799 65.783 46.8799C65.9928 47.1474 66.0584 47.2969 66.0584 47.714V58.2788C66.0584 65.754 70.3258 69.2004 77.119 69.2004C83.9121 69.2004 88.3107 65.8221 88.3107 58.1083V45.1672H88.3028Z" fill="black"/>
<path d="M166.212 44.8629H158.545C158.467 44.8629 158.391 44.8918 158.33 44.9521C158.212 45.0701 158.218 45.2327 158.33 45.3796C158.446 45.5239 159.686 47.1186 159.686 47.1186C159.896 47.3887 159.962 47.5356 159.962 47.9526V57.492L150.446 45.2668C150.234 44.9967 150.042 44.897 149.712 44.8655H142.73C142.651 44.8655 142.575 44.8944 142.515 44.9547C142.397 45.0727 142.404 45.2406 142.515 45.3822C142.622 45.5213 143.682 46.8799 143.682 46.8799C143.892 47.15 143.957 47.2969 143.957 47.714V68.4529C143.957 68.6207 144.091 68.7571 144.259 68.7571H150.207C150.375 68.7571 150.509 68.6234 150.509 68.4529V55.6481L160.389 68.3375C160.678 68.7073 161.003 68.7545 161.622 68.7545H166.215C166.383 68.7545 166.516 68.6207 166.516 68.4503V45.1645C166.516 44.9967 166.383 44.8629 166.215 44.8629H166.212Z" fill="black"/>
<path d="M189.818 44.8629H169.826C169.75 44.8629 169.672 44.8918 169.614 44.9521C169.496 45.0701 169.496 45.2301 169.614 45.3796C169.729 45.5291 170.781 46.8799 170.781 46.8799C170.991 47.1474 171.056 47.2969 171.056 47.714V68.4529C171.056 68.6207 171.19 68.7571 171.358 68.7571H189.818C189.986 68.7571 190.122 68.6234 190.122 68.4529V63.4616C190.122 63.2937 189.986 63.1573 189.818 63.1573H177.674V59.307H188.567C188.735 59.307 188.871 59.1706 188.871 59.0027V54.6094C188.871 54.4416 188.737 54.3078 188.567 54.3078H177.674V50.4575H189.818C189.986 50.4575 190.122 50.3237 190.122 50.1558V45.1645C190.122 44.9967 189.986 44.8629 189.818 44.8629Z" fill="black"/>
</g>
<defs>
<clipPath id="clip0_7_2595">
<rect width="180.119" height="25.62" fill="white" transform="translate(10 44)"/>
</clipPath>
</defs>
</svg>
