<svg width="200" height="114" viewBox="0 0 200 114" fill="none" xmlns="http://www.w3.org/2000/svg">
<g clip-path="url(#clip0_7_2637)">
<mask id="mask0_7_2637" style="mask-type:luminance" maskUnits="userSpaceOnUse" x="3" y="24" width="195" height="64">
<path d="M3.09717 87.0416H197.078V24.7919H3.09717V87.0416Z" fill="white"/>
</mask>
<g mask="url(#mask0_7_2637)">
<path d="M65.0446 47.5266C57.7804 44.6732 50.4427 44.9702 48.5694 48.352L48.5894 48.3353C46.715 51.7205 49.4549 59.72 54.6199 66.3546C59.7861 72.9891 67.0792 72.7678 71.1051 65.5113L71.0662 65.5558C75.0899 58.3072 72.3043 50.3833 65.0446 47.5266Z" fill="black"/>
<path d="M51.2132 73.0231C50.1886 65.2883 46.3685 59.0153 42.5039 59.0153L42.5295 59.0264C38.656 59.0264 32.9959 65.2983 29.6986 73.0353C26.3992 80.7712 30.1314 87.0409 38.4246 87.0409L38.3723 87.0342C46.6633 87.0342 52.2355 80.759 51.2132 73.0231Z" fill="black"/>
<path d="M28.1129 49.8441C34.5572 54.246 41.7747 55.592 44.3578 52.7097L44.3344 52.722C46.9164 49.843 46.0253 41.4385 42.4644 33.8161C38.9068 26.2004 31.745 24.792 26.2106 30.9649L26.2529 30.9338C20.7174 37.1078 21.6719 45.4466 28.1129 49.8441Z" fill="black"/>
<path d="M108.873 59.7892L107.11 59.035C105.731 58.5055 105.09 57.8858 105.09 57.0816C105.09 55.9424 106.29 55.1793 107.41 55.1793C108.053 55.1793 108.549 55.3261 108.969 55.6599C110.152 56.5632 111.69 55.8167 111.69 55.8167L112.338 55.4585L112.119 55.0747C111.127 53.3071 109.471 52.3326 107.453 52.3326C104.865 52.3326 102.112 53.9968 102.112 57.0816C102.112 59.6824 104.075 60.8772 105.998 61.7048L107.719 62.4824C109.313 63.1443 110.301 63.8619 110.301 65.2413C110.301 66.802 109.071 67.8733 107.609 67.8733C106.826 67.8733 105.556 67.9356 104.778 66.7931C103.742 65.2124 102.275 65.3636 102.275 65.3636L101.602 65.4994L101.658 65.9176C102.045 68.8389 104.586 70.5487 107.433 70.5487C110.718 70.5487 113.28 68.4495 113.28 65.2413C113.28 61.9696 110.926 60.5957 108.873 59.7892Z" fill="black"/>
<path d="M11.7119 52.5304H11.6173C6.68811 52.556 3.09717 56.4607 3.09717 61.3999C3.09717 66.3502 6.71147 70.1492 11.664 70.1492C14.4173 70.1492 17.0215 68.9144 18.7402 66.7663C18.5534 66.5894 18.0783 65.576 16.482 65.576C14.9802 65.576 14.6398 67.0833 11.664 67.0833C8.74834 67.0833 6.33102 64.6093 6.33102 61.3999C6.33102 58.1883 8.74834 55.6019 11.664 55.6019C14.3205 55.6019 14.9602 57.1793 16.3263 57.1793C17.6934 57.1793 18.4911 56.088 18.6768 55.9156C16.9681 53.7786 14.4462 52.5449 11.7119 52.5304Z" fill="black"/>
<path d="M29.1349 53.0427H22.1722C20.993 53.0427 20.1709 53.7491 20.1709 54.8727V55.8995H23.2746C23.2746 55.8995 23.3213 60.1779 23.3213 63.5619C23.3213 65.4786 23.3069 67.1106 23.259 67.5188L23.2557 67.5222C23.2123 68.3888 22.8385 70.4579 20.845 71.3946C19.2075 72.1622 19.192 72.8953 19.1074 74.0344C19.1297 74.1178 19.1653 74.1679 19.2153 74.1701H19.2176C19.2242 74.1701 19.232 74.1679 19.2398 74.1668C19.2976 74.149 20.864 73.7641 21.0942 73.6684L21.0864 73.6617C22.5582 73.2078 24.8098 72.1978 25.8833 70.1119C25.8833 70.1119 26.87 68.5946 26.87 65.3429V65.245V55.8995H27.0157C28.1938 55.8995 29.1349 55.1931 29.1349 54.0684V53.0427Z" fill="black"/>
<path d="M65.0446 47.5266C57.7804 44.6732 50.4427 44.9702 48.5694 48.352L48.5894 48.3353C46.715 51.7205 49.4549 59.72 54.6199 66.3546C59.7861 72.9891 67.0792 72.7678 71.1051 65.5113L71.0662 65.5558C75.0899 58.3072 72.3043 50.3833 65.0446 47.5266Z" fill="black"/>
<path d="M51.2132 73.0231C50.1886 65.2883 46.3685 59.0153 42.5039 59.0153L42.5295 59.0264C38.656 59.0264 32.9959 65.2983 29.6986 73.0353C26.3992 80.7712 30.1314 87.0409 38.4246 87.0409L38.3723 87.0342C46.6633 87.0342 52.2355 80.759 51.2132 73.0231Z" fill="black"/>
<path d="M28.1129 49.8441C34.5572 54.246 41.7747 55.592 44.3578 52.7097L44.3344 52.722C46.9164 49.843 46.0253 41.4385 42.4644 33.8161C38.9068 26.2004 31.745 24.792 26.2106 30.9649L26.2529 30.9338C20.7174 37.1078 21.6719 45.4466 28.1129 49.8441Z" fill="black"/>
<path d="M85.9671 52.332H85.8425C80.3827 52.3664 76.9742 56.7917 76.9575 61.4506V61.5185C76.9753 66.2163 80.633 70.5481 85.8937 70.5481C91.1522 70.5481 94.7231 66.3609 94.7398 61.5196V61.4506C94.7231 56.9897 91.4259 52.3664 85.9671 52.332ZM80.2893 61.4862C80.2893 58.0699 82.9191 55.4991 85.8659 55.4991C88.8139 55.4991 91.4092 58.2957 91.4092 61.4862C91.4092 64.9014 88.9841 67.3732 85.8659 67.3732C82.7477 67.3732 80.2893 64.6744 80.2893 61.4862Z" fill="black"/>
<path d="M117.82 53.0153H116.461C115.476 53.0153 114.933 53.4903 114.924 54.3791V65.9529L116.148 65.9562C117.049 65.9562 117.799 65.5001 117.799 64.638V63.9494L117.809 60.6744L121.309 60.6733C121.86 60.6733 122.312 60.4997 122.577 60.1693V63.9472L122.568 65.9596H123.924C124.916 65.9596 125.46 65.4801 125.46 64.579V53.0286H124.123C123.218 53.0286 122.587 53.4836 122.587 54.3435L122.577 55.0343V58.3149H119.163C119.114 58.3149 119.04 58.3105 118.954 58.3105C118.619 58.3105 118.079 58.3605 117.808 58.8233V58.8055V58.7944V58.7933V58.7888V58.7844V58.7821V58.7777V58.7755V58.7699V58.7677V58.7621V58.7565V58.7543V58.7476V58.7432V58.7421V58.7387V58.7332V58.7298V58.7265V58.7232V58.7165V58.7143V58.712V58.7098V58.7076V58.7054V58.7031V58.7009V58.6987V58.6954V58.692V58.6887V58.6842V58.682V58.6798V58.6764V58.6731V58.6698V58.6687V58.6653V58.6598V58.6564V58.6497V58.6464V58.6431V58.6408V58.6386V58.6364V58.6275V58.6253V58.6208V58.6175V58.6153V58.6064V58.603V58.5952V58.5919V58.583V58.5797V58.5719V58.5697V58.5596V58.5574V58.5474V58.5441V58.5352V58.5329V58.5229V58.5207V58.5096V58.5074V58.4862V58.4818V58.4562V58.454C117.808 57.6753 117.809 55.9643 117.809 55.2991V55.2958V55.2535V55.2524V55.2335V55.2301V55.2123V55.2112V55.2034V55.2012V55.1945V55.1923V55.1756V55.1734V55.1712V55.1689V55.1656V55.1634V55.1589V55.1567V55.1511V55.1478V55.1422V55.14V55.1378V55.1367V55.1333V55.1267V55.1244V55.1222V55.1211V55.1189V55.1122V55.1111V55.1078V55.1055V55.1011V55.0977V55.0955V55.0933V55.0922V55.09V55.0877V55.0866V55.0844V55.0822V55.0788V55.0755V55.0733V55.071V55.0688V55.0666V55.0621V55.0599V55.0588V55.0532V55.051V55.0488V55.0455V55.0421V55.0388V55.0366V55.0343V55.0332V55.0321V55.0299V55.0288L117.82 53.0153Z" fill="black"/>
<path d="M167.292 53.0153H165.933C165.028 53.0153 164.397 53.6739 164.397 54.536L164.388 65.944H165.769C166.748 65.9385 167.286 65.4579 167.286 64.5646L167.292 53.0153Z" fill="black"/>
<path d="M134.023 52.6418C129.891 52.6418 127.309 55.9757 127.295 59.491V59.55C127.31 63.0797 130.062 66.3336 134.014 66.3336C137.963 66.3336 140.644 63.1954 140.665 59.5644V59.4799C140.646 56.117 138.149 52.6418 134.023 52.6418ZM130.149 59.5211C130.149 56.9536 131.776 55.3706 133.994 55.3706C136.211 55.3706 137.813 57.1238 137.813 59.5211C137.813 62.0886 136.34 63.5993 133.994 63.5993C131.647 63.5993 130.149 61.9172 130.149 59.5211Z" fill="black"/>
<path d="M190.507 52.3941L190.497 52.4042H190.48C186.186 52.4119 183.426 55.3666 183.424 59.427C183.426 63.4818 186.278 66.709 190.565 66.7201H190.58H190.582C192.881 66.7156 194.687 65.9625 196.109 63.7699C196.942 62.4873 197.078 60.5883 197.078 59.4982V59.4926C197.078 59.0732 197.06 58.7784 197.052 58.6805H193.391C192.89 58.6805 192.37 58.8096 191.978 59.0532C191.589 59.299 191.327 59.6572 191.327 60.1267L191.328 61.109H194.313V61.1713C194.313 61.4572 194.261 62.1713 193.765 62.8154C193.269 63.4573 192.329 64.0258 190.575 64.0258H190.571C189.51 64.0258 188.475 63.6609 187.707 62.9033C186.937 62.1458 186.435 60.9933 186.435 59.4258C186.435 58.2745 186.809 57.191 187.501 56.3933C188.191 55.6013 189.198 55.0929 190.467 55.0862L190.468 55.084H190.491C191.611 55.084 192.166 55.3321 192.579 55.5813C192.994 55.8293 193.257 56.0652 193.82 56.0652C194.382 56.0652 194.83 55.8416 195.157 55.598C195.457 55.3721 195.651 55.1352 195.745 55.0373C194.534 53.3075 192.789 52.3986 190.507 52.3941Z" fill="black"/>
<path d="M147.466 53.0153H145.069V53.0175H144.241C143.25 53.0175 142.705 53.4948 142.705 54.3992V65.9407H144.081C144.973 65.9351 145.598 65.4802 145.598 64.6236V63.9361L145.588 60.6789H147.5C149.039 60.6789 151.815 59.8301 151.815 56.8276C151.815 54.1567 149.602 53.0153 147.466 53.0153ZM145.589 55.8598V55.377H145.596V55.3792H146.913C147.914 55.3792 148.941 55.5528 148.941 56.8465C148.941 58.1392 147.879 58.315 146.842 58.315C146.842 58.315 146.706 58.315 146.526 58.3172C146.215 58.3361 145.814 58.4295 145.588 58.8222V55.8587L145.589 55.8598Z" fill="black"/>
<path d="M158.192 53.0153H155.796V53.0175H154.967C153.976 53.0175 153.431 53.4948 153.431 54.3992V65.9407H154.806C155.699 65.9351 156.325 65.4802 156.325 64.6236V63.9361L156.314 60.6789H158.226C159.765 60.6789 162.542 59.8301 162.542 56.8276C162.542 54.1567 160.328 53.0153 158.192 53.0153ZM156.314 55.8598L156.315 55.377H156.321L156.322 55.3792H157.639C158.64 55.3792 159.667 55.5528 159.667 56.8465C159.667 58.1392 158.606 58.315 157.566 58.315H157.568C157.566 58.315 157.432 58.315 157.254 58.3172C156.943 58.3361 156.541 58.4295 156.312 58.8222V55.8587L156.314 55.8598Z" fill="black"/>
<path d="M173.947 53.0395L171.47 53.044C170.576 53.0462 169.963 53.4889 169.962 54.3366L169.891 65.9171H171.252C172.149 65.9148 172.76 65.4721 172.762 64.6244L172.584 55.5536L177.705 65.9237L180.18 65.9215C180.517 65.9215 180.814 65.857 181.052 65.7335C181.454 65.5277 181.696 65.1584 181.697 64.6244L181.493 53.0395L180.409 53.044C180.071 53.044 179.774 53.1074 179.534 53.232C179.132 53.4366 178.888 53.8071 178.888 54.3388L178.844 62.8479L173.947 53.0395Z" fill="black"/>
<path d="M108.873 59.7892L107.11 59.035C105.731 58.5055 105.09 57.8858 105.09 57.0816C105.09 55.9424 106.29 55.1793 107.41 55.1793C108.053 55.1793 108.549 55.3261 108.969 55.6599C110.152 56.5632 111.69 55.8167 111.69 55.8167L112.338 55.4585L112.119 55.0747C111.127 53.3071 109.471 52.3326 107.453 52.3326C104.865 52.3326 102.112 53.9968 102.112 57.0816C102.112 59.6824 104.075 60.8772 105.998 61.7048L107.719 62.4824C109.313 63.1443 110.301 63.8619 110.301 65.2413C110.301 66.802 109.071 67.8733 107.609 67.8733C106.826 67.8733 105.556 67.9356 104.778 66.7931C103.742 65.2124 102.275 65.3636 102.275 65.3636L101.602 65.4994L101.658 65.9176C102.045 68.8389 104.586 70.5487 107.433 70.5487C110.718 70.5487 113.28 68.4495 113.28 65.2413C113.28 61.9696 110.926 60.5957 108.873 59.7892Z" fill="black"/>
</g>
</g>
<defs>
<clipPath id="clip0_7_2637">
<rect width="194.175" height="60.138" fill="white" transform="translate(3 27)"/>
</clipPath>
</defs>
</svg>
