<svg width="200" height="114" viewBox="0 0 200 114" fill="none" xmlns="http://www.w3.org/2000/svg">
<g clip-path="url(#clip0_7_2527)">
<path d="M174.607 58.5806L169.883 59.7903C168.489 58.9712 166.89 58.5682 165.274 58.629C160.702 58.629 158.016 61.1331 158.016 64.4899C157.975 65.4728 158.204 66.4482 158.678 67.3099C159.153 68.1716 159.855 68.8866 160.708 69.377C159.379 70.2785 158.331 71.5363 157.683 73.006V73.4415L161.004 76.3206C159.438 76.8528 157.841 78.0746 157.375 79.6109C158.409 81.4254 161.004 82.871 164.887 82.871C169.647 82.871 174.19 80.1189 174.19 75.8246C174.19 73.4052 172.315 72.0625 169.956 72.0625H163.302C161.863 72.0625 161.331 71.5 161.331 70.7802C161.335 70.429 161.431 70.085 161.609 69.7823C162.727 70.1684 163.904 70.3587 165.087 70.3448C169.659 70.3448 172.345 67.8407 172.345 64.4899C172.36 63.0725 171.849 61.6998 170.911 60.6371L174.607 62.5242H175.048V58.5806H174.607ZM161.954 76.496H169.254C169.44 76.4956 169.624 76.5346 169.794 76.6105C169.964 76.6864 170.116 76.7974 170.24 76.9363C170.364 77.0751 170.457 77.2386 170.514 77.416C170.57 77.5935 170.588 77.7808 170.567 77.9657C170.567 80.004 168.147 81.5948 165.31 81.5948C162.8 81.5948 161.488 80.1855 161.488 78.4919C161.487 77.7996 161.647 77.1165 161.954 76.496ZM165.462 69.2923C163.992 69.2923 163.145 66.504 163.145 63.4073C163.145 60.4617 163.992 59.6452 164.96 59.6452C166.369 59.6452 167.252 62.4274 167.252 65.5665C167.252 68.5 166.369 69.2923 165.462 69.2923ZM154.599 64.375C154.599 60.4919 151.841 58.6109 148.798 58.6109C148.52 58.6109 148.333 58.6774 147.202 59.3004L143.887 61.1149V58.6109H143.415L135.958 60.4919V60.9637L138.407 62.1734V74.0524L136.29 75.9637L134.192 74.0524L127.127 52.9738H121.556V53.379L122.433 56.2581L116.421 73.4839L113.911 75.4314C113.754 73.2661 111.94 72.0444 109.72 72.0444H102.982C101.542 72.0444 101.01 71.4819 101.01 70.7621C101.016 70.4104 101.114 70.0663 101.294 69.7641C102.411 70.1496 103.585 70.3399 104.766 70.3266C109.339 70.3266 112.024 67.8226 112.024 64.4718C112.038 63.0601 111.527 61.6936 110.591 60.6371L114.292 62.5181H114.728V58.5806H114.292L109.556 59.7903C108.167 58.9715 106.571 58.5685 104.96 58.629C100.381 58.629 97.7016 61.1331 97.7016 64.4899C97.6603 65.4728 97.8894 66.4482 98.3639 67.3099C98.8385 68.1716 99.5404 68.8866 100.393 69.377C99.0612 70.2753 98.0124 71.534 97.369 73.006V73.4415L100.683 76.3206C99.123 76.8528 97.5202 78.0746 97.0544 79.6109C98.0887 81.4254 100.683 82.871 104.567 82.871C109.079 82.871 113.367 80.3972 113.839 76.5141H121.169V76.1089L117.94 73.8831L119.379 69.8367H126.837L128.216 74.0706L125.712 76.1028V76.5141H145.968V76.1089L143.869 74.2581V61.9617C144.607 61.7297 145.376 61.6134 146.149 61.6169C148.127 61.6169 149.095 62.3972 149.095 64.5927V74.2399L146.996 76.0847V76.4899H156.867V75.9939L154.581 74.0524L154.599 64.375ZM104.645 59.6452C106.054 59.6452 106.931 62.4274 106.931 65.5665C106.931 68.506 106.054 69.2923 105.117 69.2923C103.641 69.2923 102.794 66.504 102.794 63.4073C102.825 60.4617 103.671 59.6452 104.645 59.6452ZM104.99 81.5706C102.48 81.5706 101.167 80.1613 101.167 78.4677C101.169 77.7827 101.331 77.1076 101.639 76.496H108.933C109.122 76.4914 109.31 76.5272 109.484 76.6012C109.658 76.6751 109.814 76.7854 109.942 76.9246C110.069 77.0638 110.166 77.2287 110.225 77.4083C110.283 77.5879 110.303 77.7779 110.282 77.9657C110.282 79.9919 107.863 81.5706 104.99 81.5706ZM119.833 68.3851L123.214 58.6109L126.377 68.3851H119.833ZM66.0262 58.6109C61.6411 58.6109 56.9536 61.4294 56.9536 67.8226C56.9536 73.4899 60.9335 76.8105 65.6633 76.8105C70.0182 76.8105 74.7359 73.9617 74.7359 67.5081C74.7359 61.9012 70.6956 58.6109 66.0262 58.6109ZM66.1835 75.6794C63.8669 75.6794 62.7359 71.2339 62.7359 66.7883C62.7359 62.6512 63.6492 59.7419 65.5242 59.7419C67.9073 59.7419 68.9415 64.0968 68.9415 68.3488C68.9415 72.7339 67.8468 75.6794 66.1835 75.6794ZM46.1089 58.6109C41.7238 58.6109 37.0363 61.4294 37.0363 67.8226C37.0363 73.4899 41.0161 76.8105 45.746 76.8105C50.1008 76.8105 54.8186 73.9617 54.8186 67.5081C54.8125 61.9012 50.7782 58.6109 46.1089 58.6109ZM46.2661 75.6794C43.9436 75.6794 42.8186 71.2339 42.8186 66.7883C42.8186 62.6512 43.7319 59.7419 45.6069 59.7419C47.9899 59.7419 49.0242 64.0968 49.0242 68.3488C49.0242 72.7339 47.9234 75.6794 46.2661 75.6794ZM94.2782 64.375C94.2782 60.4919 91.5202 58.6109 88.4839 58.6109C88.1996 58.6109 88.0121 58.6774 86.8871 59.3004L83.5665 61.1149V58.6109H83.0948L75.6432 60.4919V60.9637L78.0625 62.1734V74.0524L75.8065 76.0847V76.4899H85.6653V76.0847L83.5665 74.2399V61.9617C84.3062 61.7292 85.0775 61.6129 85.8528 61.6169C87.8246 61.6169 88.7923 62.3972 88.7923 64.5927V74.2399L86.6936 76.0847V76.4899H96.5585V75.9939L94.2722 74.0524L94.2782 64.375ZM26.252 53.506L28.5081 55.7319V75.9939C28.5081 79.0181 27.256 80.3185 25 81.6008L25.1573 82.1028C30.2621 81.5706 34.2298 78.4375 34.2298 73.4899V55.7319L36.4556 53.506V52.9738H26.252V53.506ZM84.3589 54.9637C85.7185 54.9854 87.0686 54.7325 88.3282 54.2201C89.5878 53.7078 90.7311 52.9465 91.6895 51.9819L91.4597 51.5161C90.3172 52.0256 89.0816 52.2933 87.8307 52.3024C84.3528 52.3024 82.4234 50.1069 81.9819 46.254H92.1371C91.9919 40.8468 89.0101 37.9556 84.6008 37.9556C79.4839 37.9556 76.7379 41.9657 76.7379 46.6653C76.7379 51.3649 79.7682 54.9637 84.3589 54.9637ZM81.9032 44.4698C81.9032 41.754 82.7198 39.0262 84.4436 39.0262C85.5565 39.0262 86.8629 40.4234 86.8629 44.9839L81.9274 45.3347L81.9032 44.4698ZM56.7419 54.2923V54.6734H65.9476V54.2923L63.9879 52.5685V41.1069C64.6814 40.8932 65.4035 40.7872 66.129 40.7923C67.9436 40.7923 68.875 41.5181 68.875 43.5625V52.5685L66.9153 54.2923V54.6734H76.1149V54.2016L73.9859 52.3871V43.7016C73.9859 40.0726 71.5302 37.998 68.5786 37.998C68.3125 37.998 68.1371 38.0585 67.0847 38.6452L63.9879 40.3085V31H63.5524L56.5968 32.754V33.1895L58.871 34.3327V52.3931L56.7419 54.2923ZM36.0806 39.2681H36.4617L41.1371 34.0121H43.2419V52.2722L41.1371 54.2923V54.6734H50.6089V54.2923L48.4738 52.2722V34.0121H50.5786L55.2238 39.2681H55.6048V32.7238H36.0806V39.2681Z" fill="black"/>
</g>
<defs>
<clipPath id="clip0_7_2527">
<rect width="150.048" height="51.8528" fill="white" transform="translate(25 31)"/>
</clipPath>
</defs>
</svg>
