<svg width="200" height="114" viewBox="0 0 200 114" fill="none" xmlns="http://www.w3.org/2000/svg">
<g clip-path="url(#clip0_7_2793)">
<path d="M100.033 82.2596C86.1595 82.2596 74.7931 70.8374 74.7931 56.9637C74.7931 53.8435 75.3502 50.8905 76.4089 48.1046L91.1741 77.8022C91.3412 78.1922 91.6198 78.5265 92.0656 78.5265C92.5113 78.5265 92.7899 78.1922 92.957 77.8022L99.7546 62.5912C99.8103 62.424 99.9218 62.2569 100.089 62.2569C100.256 62.2569 100.312 62.424 100.423 62.5912L107.221 77.8022C107.388 78.1922 107.667 78.5265 108.112 78.5265C108.558 78.5265 108.837 78.1922 109.004 77.8022L123.769 48.1046C124.828 50.8905 125.385 53.8435 125.385 56.9637C125.273 70.8374 113.907 82.2596 100.033 82.2596ZM100.033 51.2248C99.866 51.2248 99.8103 51.0576 99.6989 50.8905L91.787 33.0608C94.35 32.1136 97.1359 31.6121 100.033 31.6121C102.931 31.6121 105.716 32.1136 108.279 33.0608L100.368 50.8905C100.256 51.1133 100.2 51.2248 100.033 51.2248ZM91.9541 69.5559C91.787 69.5559 91.7313 69.3888 91.6198 69.2216L78.8047 43.3686C81.0892 39.8584 84.1536 36.9053 87.8867 34.8438L97.1359 55.4036C97.2473 55.7379 97.5259 55.8494 97.8045 55.8494H102.262C102.596 55.8494 102.819 55.7936 102.986 55.4036L112.235 34.8438C115.913 36.9053 119.033 39.8584 121.317 43.3686L108.391 69.2216C108.335 69.3888 108.224 69.5559 108.057 69.5559C107.889 69.5559 107.834 69.3888 107.722 69.2216L102.875 58.1895C102.708 57.7995 102.485 57.7438 102.15 57.7438H97.6931C97.3587 57.7438 97.1359 57.7995 96.9687 58.1895L92.2884 69.2216C92.2327 69.3888 92.1213 69.5559 91.9541 69.5559ZM100.033 84.8226C115.467 84.8226 127.892 72.3975 127.892 56.9637C127.892 41.5299 115.467 29.1048 100.033 29.1048C84.5994 29.1048 72.1743 41.5299 72.1743 56.9637C72.1743 72.3975 84.5994 84.8226 100.033 84.8226Z" fill="black"/>
</g>
<defs>
<clipPath id="clip0_7_2793">
<rect width="56" height="56" fill="white" transform="translate(72 29)"/>
</clipPath>
</defs>
</svg>
