<svg width="200" height="114" viewBox="0 0 200 114" fill="none" xmlns="http://www.w3.org/2000/svg">
<path d="M14.9831 50.6106C14.8549 50.081 14.8853 49.521 14.9561 49.2308C15.1349 48.3942 15.7051 47.4598 17.3614 47.4598C18.8998 47.4598 19.8039 48.4145 19.8039 49.8448V51.4708H26.3586V49.6255C26.3586 43.9108 21.2072 43 17.4896 43C12.8241 43 9.00867 44.5484 8.31374 48.8395C8.12145 50.0169 8.09108 51.0525 8.36771 52.3817C9.50458 57.7523 18.8424 59.3075 20.2019 62.7046C20.4549 63.3354 20.3807 64.1484 20.2525 64.6443C20.0366 65.5282 19.4429 66.4188 17.6853 66.4188C16.0424 66.4188 15.0607 65.4641 15.0607 64.027L15.0506 61.5002H8V63.5075C8 69.3807 12.6116 71.1484 17.5504 71.1484C22.4892 71.1484 26.1966 69.5292 26.8308 65.1335C27.148 62.8665 26.9084 61.3923 26.8039 60.8323C25.694 55.32 15.732 53.6839 14.9831 50.6106ZM100.424 50.6747C100.306 50.1552 100.339 49.6053 100.4 49.3152C100.589 48.4752 101.152 47.5576 102.782 47.5576C104.3 47.5576 105.187 48.5022 105.187 49.9224V51.5282H111.664V49.6964C111.664 44.0357 106.59 43.1451 102.913 43.1451C98.2848 43.1451 94.5065 44.6699 93.8149 48.9306C93.6328 50.0911 93.5855 51.12 93.879 52.4323C95.0058 57.7422 104.249 59.2839 105.592 62.6439C105.828 63.2814 105.76 64.0911 105.639 64.5701C105.437 65.4439 104.85 66.3243 103.106 66.3243C101.469 66.3243 100.488 65.3831 100.488 63.9663V61.4463H93.5147V63.4501C93.5147 69.2559 98.0622 71.0101 102.964 71.0101C107.866 71.0101 111.533 69.4077 112.153 65.0593C112.45 62.8125 112.227 61.3518 112.106 60.7986C111.02 55.3504 101.166 53.7142 100.42 50.6713L100.424 50.6747ZM160.08 64.9884L153.893 43.8366H144.144V69.8361H150.594L150.22 48.0063L156.866 69.8361H166.217V43.8366H159.726L160.084 64.9884H160.08ZM36.1282 43.8366L31.2602 70.1094H38.3581L42.0251 45.7899L45.6043 70.1094H52.6516L47.8039 43.8366H36.1248H36.1282ZM75.8106 43.8366L72.4945 64.3745L69.1817 43.8366H58.4641L57.8973 70.1094H64.4622L64.641 45.7899L69.1581 70.1094H75.8207L80.3412 45.7899L80.52 70.1094H87.1017L86.5147 43.8366H75.8106ZM136.861 43.8366H130.215V63.2713C130.225 63.6087 130.215 63.9899 130.158 64.2699C130.019 64.921 129.466 66.1793 127.634 66.1793C125.802 66.1793 125.256 64.9243 125.128 64.2699C125.06 63.9899 125.053 63.6087 125.06 63.2713V43.8366H118.418V62.6675C118.411 63.1533 118.448 64.1451 118.475 64.4048C118.934 69.3133 122.8 70.9055 127.631 70.9055C132.462 70.9055 136.334 69.3133 136.803 64.4048C136.84 64.1451 136.888 63.1533 136.861 62.6675V43.8366ZM182.48 55.3639V59.1961H185.173V62.9981C185.179 63.3388 185.162 63.7031 185.105 63.9966C184.997 64.7051 184.326 65.9128 182.413 65.9128C180.5 65.9128 179.853 64.7051 179.738 63.9966C179.691 63.7031 179.67 63.3354 179.67 62.9981V50.9918C179.67 50.5667 179.701 50.1012 179.788 49.7504C179.92 49.1094 180.487 47.8477 182.4 47.8477C184.41 47.8477 184.909 49.1769 185.024 49.7504C185.098 50.1282 185.105 50.7624 185.105 50.7624V52.2198H191.72V51.3595C191.72 51.3595 191.751 50.4588 191.67 49.6222C191.174 44.6935 187.112 43.1349 182.457 43.1349C177.801 43.1349 173.814 44.707 173.234 49.6222C173.18 50.0708 173.102 50.8805 173.102 51.3595V62.4043C173.102 62.8867 173.119 63.2578 173.207 64.1383C173.639 68.932 177.791 70.6289 182.437 70.6289C187.082 70.6289 191.235 68.9287 191.677 64.1383C191.754 63.2578 191.764 62.8867 191.774 62.4043V55.3639H182.48Z" fill="black"/>
</svg>
