<svg width="200" height="114" viewBox="0 0 200 114" fill="none" xmlns="http://www.w3.org/2000/svg">
<g clip-path="url(#clip0_7_2586)">
<path d="M77.3289 60.7C77.3289 69.7035 84.6548 77.0292 93.6585 77.0292L93.6577 67.6977C89.7996 67.6983 86.6603 64.5594 86.6603 60.7V54.2836L93.6586 54.2847V44.9528H86.6603V37.0019L77.331 44.9528L77.3289 60.7Z" fill="url(#paint0_linear_7_2586)"/>
<path d="M139.274 66.6843C138.119 67.3444 137.046 67.6993 135.645 67.6993C131.779 67.6993 128.645 64.5647 128.645 60.7C128.645 56.8335 131.779 53.6995 135.645 53.6995C137.046 53.6995 138.119 54.0543 139.274 54.7145V44.7742C138.108 44.51 136.892 44.3698 135.645 44.3698C126.628 44.3698 119.316 51.6808 119.316 60.7C119.316 69.7175 126.628 77.0286 135.645 77.0286C136.892 77.0286 138.108 76.8883 139.274 76.6235V66.6843Z" fill="url(#paint1_linear_7_2586)"/>
<path d="M119.316 60.7C119.316 56.8924 120.623 53.391 122.808 50.614V50.607C119.816 46.8134 115.182 44.3702 109.986 44.3702C107.483 44.3702 105.112 44.9382 102.99 45.9499L102.989 37L93.6577 37.0019L93.6585 60.7C93.6596 69.7035 100.983 77.0291 109.986 77.0291C115.182 77.0291 119.817 74.5855 122.808 70.7913V70.7854C120.624 68.0078 119.316 64.5076 119.316 60.7ZM109.986 67.6982C106.128 67.6982 102.99 64.5583 102.989 60.6999C102.99 56.841 106.128 53.7016 109.986 53.7016C113.844 53.7016 116.983 56.841 116.983 60.6999C116.984 64.5594 113.844 67.6982 109.986 67.6982Z" fill="url(#paint2_linear_7_2586)"/>
<path d="M67.9978 60.7C67.9983 64.5594 64.8591 67.6983 61 67.6983V77.0291C70.0037 77.0291 77.3289 69.7035 77.3289 60.7L77.3283 44.9533L67.9978 44.9528V60.7Z" fill="url(#paint3_linear_7_2586)"/>
</g>
<defs>
<linearGradient id="paint0_linear_7_2586" x1="77.3288" y1="57.0155" x2="93.6585" y2="57.0155" gradientUnits="userSpaceOnUse">
<stop offset="0.2" stop-color="#1C1819"/>
<stop offset="0.55" stop-color="#1C1819" stop-opacity="0.85"/>
<stop offset="1" stop-color="#1C1819" stop-opacity="0"/>
</linearGradient>
<linearGradient id="paint1_linear_7_2586" x1="119.316" y1="60.6991" x2="139.274" y2="60.6991" gradientUnits="userSpaceOnUse">
<stop offset="0.4" stop-color="#1C1819"/>
<stop offset="0.7" stop-color="#1C1819" stop-opacity="0.75"/>
<stop offset="0.98" stop-color="#1C1819" stop-opacity="0"/>
</linearGradient>
<linearGradient id="paint2_linear_7_2586" x1="93.6577" y1="57.0145" x2="122.808" y2="57.0145" gradientUnits="userSpaceOnUse">
<stop offset="0.3" stop-color="#1C1819"/>
<stop offset="0.7" stop-color="#1C1819" stop-opacity="0.7"/>
<stop offset="1" stop-color="#1C1819" stop-opacity="0.03"/>
</linearGradient>
<linearGradient id="paint3_linear_7_2586" x1="61" y1="60.9909" x2="77.3289" y2="60.9909" gradientUnits="userSpaceOnUse">
<stop offset="0.4" stop-color="#1C1819"/>
<stop offset="0.6503" stop-color="#1C1819" stop-opacity="0.85"/>
<stop offset="1" stop-color="#1C1819" stop-opacity="0"/>
</linearGradient>
<clipPath id="clip0_7_2586">
<rect width="78.2744" height="40.0291" fill="white" transform="translate(61 37)"/>
</clipPath>
</defs>
</svg>
