<svg width="200" height="114" viewBox="0 0 200 114" fill="none" xmlns="http://www.w3.org/2000/svg">
<g clip-path="url(#clip0_7_2564)">
<path d="M79.5001 48.054C78.9172 48.054 78.3663 47.9868 77.8443 47.8523C77.3223 47.7177 76.8803 47.5448 76.5216 47.3366C76.1629 47.1253 75.8779 46.9395 75.6633 46.773C75.4488 46.6064 75.2694 46.4431 75.1253 46.283L76.1886 45.1589C77.1045 46.062 78.187 46.5136 79.4296 46.5136C80.1662 46.5136 80.7043 46.3919 81.0437 46.1517C81.3832 45.9115 81.5561 45.6072 81.5561 45.2389C81.5561 45.1332 81.5433 45.0339 81.5209 44.9443C81.4985 44.8546 81.4601 44.7745 81.4056 44.7041C81.3512 44.6336 81.3031 44.5696 81.2615 44.5087C81.2199 44.4511 81.1462 44.3966 81.0437 44.3422C80.938 44.2877 80.8612 44.2493 80.8131 44.2205C80.7619 44.1949 80.6722 44.1596 80.5409 44.1212C80.4096 44.0796 80.3199 44.0507 80.2751 44.0347C80.2303 44.0155 80.131 43.9899 79.9741 43.9547C79.8203 43.9194 79.7275 43.897 79.7018 43.8874C79.4313 43.8135 79.159 43.7462 78.8852 43.6856C78.5297 43.6056 78.2254 43.5287 77.966 43.4519C77.7066 43.375 77.4504 43.2853 77.1974 43.1764C76.1085 42.7313 75.5641 42.0075 75.5641 41.0051C75.5641 40.4606 75.7466 39.9834 76.1149 39.5703C76.4832 39.1604 76.9412 38.8561 77.492 38.6575C78.0397 38.4622 78.629 38.3629 79.2567 38.3629C79.9741 38.3629 80.6722 38.4782 81.348 38.712C82.0237 38.9458 82.5842 39.2532 83.0293 39.6375L82.2127 40.8449C81.332 40.182 80.352 39.8521 79.2695 39.8521C78.6866 39.8521 78.203 39.945 77.8187 40.1275C77.4312 40.3101 77.239 40.5887 77.239 40.9666C77.239 41.2869 77.3927 41.5399 77.7034 41.7224C78.0141 41.905 78.5649 42.0875 79.3656 42.2637C80.5089 42.5135 81.3288 42.7729 81.8188 43.0419C82.7635 43.5511 83.2343 44.2941 83.2343 45.2677C83.2343 45.7417 83.1222 46.1645 82.8948 46.5424C82.6675 46.9171 82.3696 47.2117 81.9949 47.4199C81.6234 47.6313 81.2231 47.7882 80.7971 47.8971C80.3712 48.006 79.9356 48.054 79.5001 48.054ZM93.2585 38.5262H94.8246V47.8939H93.1752V41.3541L90.1103 45.4951L87.0614 41.3413V47.8939H85.4281V38.5262H86.9397L90.1007 42.8946L93.2585 38.5262ZM75.769 63.9774V54.6098H82.9493V56.1246H77.4312V58.2704H81.5177V59.798H77.4312V62.453H83.0165V63.9806L75.769 63.9774ZM85.2199 63.9774V54.6098H86.7316L91.8686 61.1783L91.8814 54.6098H93.5147V63.9774H92.0159L86.8533 57.3832V63.9774H85.2199ZM98.5044 63.9774V56.1374H95.5067V54.6098H103.177V56.1374H100.179V63.9774H98.5044ZM105.166 63.9774V54.6098H112.346V56.1246H106.828V58.2704H110.915V59.798H106.828V62.453H112.413V63.9806L105.166 63.9774ZM114.62 63.9774V54.6098H119.485C119.975 54.6098 120.407 54.6962 120.779 54.866C121.15 55.0357 121.435 55.2631 121.63 55.5481C121.826 55.8332 121.97 56.1342 122.066 56.4449C122.162 56.7587 122.21 57.0854 122.21 57.4217C122.21 58.0206 122.06 58.5746 121.762 59.0838C121.461 59.593 120.993 59.9357 120.359 60.1151L122.716 63.9742H120.865L118.646 60.2496H116.288V63.9742L114.62 63.9774ZM116.279 58.7251H119.318C119.719 58.7251 120.023 58.6098 120.231 58.376C120.439 58.1422 120.545 57.8284 120.545 57.4249C120.545 57.0406 120.445 56.7331 120.244 56.4993C120.045 56.2655 119.757 56.1502 119.385 56.1502H116.279V58.7251ZM126.498 63.9774V56.1374H123.501V54.6098H131.171V56.1374H128.173V63.9774H126.498ZM131.113 63.9774L135.555 54.5553H137.013L141.455 63.9774H139.684L138.675 61.7932H133.826L132.792 63.9774H131.113ZM134.534 60.304H137.98L136.276 56.6306L134.534 60.304ZM143.13 63.9774V54.6098H144.792V63.9774H143.13ZM147.559 63.9774V54.6098H149.07L154.207 61.1783L154.22 54.6098H155.854V63.9774H154.355L149.192 57.3832V63.9774H147.559ZM166.355 54.6098H167.921V63.9774H166.272V57.4377L163.207 61.5787L160.155 57.4249V63.9774H158.521V54.6098H160.033L163.194 58.9781L166.355 54.6098ZM170.592 63.9774V54.6098H177.772V56.1246H172.254V58.2704H176.341V59.798H172.254V62.453H177.84V63.9806L170.592 63.9774ZM180.046 63.9774V54.6098H181.558L186.695 61.1783L186.708 54.6098H188.341V63.9774H186.842L181.679 57.3832V63.9774H180.046ZM193.327 63.9774V56.1374H190.33V54.6098H198V56.1374H195.002V63.9774H193.327ZM55.3972 61.1463C55.3972 63.6027 57.3956 65.6011 59.852 65.6011C62.3084 65.6011 64.3069 63.6027 64.3069 61.1463L64.3037 43.66C64.3037 40.6528 61.8569 38.2028 58.8464 38.2028C57.9209 38.2028 57.0273 38.4334 56.2363 38.8625C55.7463 36.6783 53.7895 35.0386 51.4612 35.0386C50.1545 35.0386 48.9247 35.5478 47.9992 36.4734L36.6459 47.8266L25.8947 37.1972C22.9643 34.2668 18.1988 34.2668 15.2716 37.1972C14.9035 37.5661 14.574 37.9717 14.2884 38.4077H14.2756C12.2676 38.4077 10.3812 39.1892 8.96248 40.6079C6.03209 43.5383 6.03209 48.3038 8.96248 51.231L23.7361 66.0047C24.9724 67.2409 25.6545 68.887 25.6545 70.6389C25.6545 71.9039 25.299 73.1145 24.6329 74.1553C23.4031 73.9119 22.2277 73.3162 21.2765 72.3651L8.68386 59.7692C7.94405 59.0294 6.96085 58.6226 5.91359 58.6226C4.86634 58.6226 3.88314 59.0294 3.14333 59.7692C2.40673 60.5058 2 61.489 2 62.5362C2 63.5835 2.40673 64.5667 3.14654 65.3065L13.792 75.952C15.2108 77.3707 17.0971 78.1522 19.1052 78.1522C21.1132 78.1522 22.9995 77.3707 24.4183 75.952C24.6585 75.7118 24.8763 75.462 25.078 75.1994C25.3535 75.2282 25.6321 75.2442 25.9139 75.2442C27.922 75.2442 29.8083 74.4628 31.2271 73.044C32.6458 71.6253 33.4273 69.7389 33.4273 67.7309C33.4273 65.7228 32.6458 63.8365 31.2271 62.4177L15.9506 47.1413C13.8561 45.0468 13.4782 41.8698 14.8201 39.3877C16.3637 39.5126 17.8017 40.1756 18.9098 41.2837L28.4184 50.7923C30.2439 52.6177 33.2127 52.6177 35.0382 50.7923L36.6523 49.1781L37.9686 50.4784C40.0919 52.6017 43.5443 52.6017 45.6644 50.4784L55.394 40.7489L55.3972 61.1463ZM56.358 39.9354V39.9162C57.0882 39.4262 57.9497 39.1636 58.8496 39.1636C61.3284 39.1636 63.3461 41.1812 63.3461 43.66L63.3493 61.1463C63.3493 63.0743 61.78 64.6404 59.8552 64.6404C57.9305 64.6404 56.3612 63.0711 56.3612 61.1463L56.358 39.9354ZM23.7361 75.2698C21.1805 77.8255 17.0235 77.8255 14.471 75.2698L3.82549 64.6243C3.26824 64.0671 2.96078 63.3241 2.96078 62.5362C2.96078 61.7484 3.26824 61.0054 3.82549 60.4481C4.38275 59.8909 5.12575 59.5834 5.91359 59.5834C6.70144 59.5834 7.44444 59.8909 8.0017 60.4481L20.5944 73.0408C21.5488 73.9952 22.7177 74.6613 23.9924 74.9976C23.9123 75.0905 23.8258 75.1802 23.7361 75.2698ZM15.2716 47.8202L30.5449 63.0935C33.1006 65.6492 33.1006 69.8062 30.5449 72.3587C29.9104 72.9956 29.1509 73.4943 28.3142 73.8233C27.4775 74.1524 26.5818 74.3047 25.6833 74.2706C26.295 73.1689 26.6185 71.9263 26.6185 70.6356C26.6185 68.6276 25.8371 66.7413 24.4183 65.3225L9.64144 50.5521C8.40523 49.3158 7.72307 47.6697 7.72307 45.9179C7.72307 44.1692 8.40523 42.5231 9.64144 41.2837C10.7527 40.1724 12.1971 39.5094 13.7472 39.3845C12.4854 42.158 12.9946 45.5464 15.2716 47.8202ZM34.3592 50.1165C32.9084 51.5673 30.5481 51.5673 29.0973 50.1165L19.5888 40.6079C18.439 39.4582 16.985 38.728 15.4093 38.491C15.5759 38.2764 15.7552 38.0715 15.9506 37.8761C18.5031 35.3204 22.6601 35.3204 25.2158 37.8793L35.9669 48.5088L34.3592 50.1165ZM54.9905 39.8009L44.9855 49.8058C43.2369 51.5545 40.3961 51.5545 38.6443 49.8026L37.328 48.5024L48.6781 37.1523C49.0426 36.7855 49.4763 36.4948 49.9541 36.2968C50.4318 36.0989 50.9441 35.9978 51.4612 35.9994C53.4692 35.9994 55.1282 37.511 55.3652 39.455C55.2371 39.5639 55.109 39.6792 54.9905 39.8009ZM59.8776 68.1088C57.2323 68.1088 55.0865 70.2545 55.0865 72.8999C55.0865 75.5453 57.2323 77.691 59.8776 77.691C62.523 77.691 64.6688 75.5453 64.6688 72.8999C64.6688 70.2545 62.523 68.1088 59.8776 68.1088ZM59.8776 76.7302C57.7671 76.7302 56.0473 75.0136 56.0473 72.8999C56.0473 70.7862 57.7639 69.0696 59.8776 69.0696C61.9914 69.0696 63.708 70.7862 63.708 72.8999C63.708 75.0136 61.9882 76.7302 59.8776 76.7302Z" fill="black"/>
</g>
<defs>
<clipPath id="clip0_7_2564">
<rect width="196" height="43.1488" fill="white" transform="translate(2 35)"/>
</clipPath>
</defs>
</svg>
