<svg width="200" height="114" viewBox="0 0 200 114" fill="none" xmlns="http://www.w3.org/2000/svg">
<path d="M114.358 49.8202C107.911 49.8202 103.672 54.6293 103.672 60.5299C103.672 67.0171 108.223 71.1228 114.858 71.1228C119.036 71.1228 123.406 68.6863 124.696 64.3429H118.116C117.634 65.4531 116.221 66.2429 114.712 66.2429C112.429 66.2429 111.033 64.5836 110.831 62.1441H125.115C125.237 61.6215 125.282 61.0742 125.282 60.5299C125.282 55.0301 121.842 49.8202 114.358 49.8202ZM110.867 58.1839C111.216 55.9458 112.522 54.704 114.787 54.704C116.75 54.704 118.134 56.2671 118.134 58.1839H110.867ZM95.5058 50.502C92.8158 50.502 90.96 51.3734 89.5669 52.6212V43.6415H82.1031V70.552H89.5669V60.3315C89.5669 57.3104 91.1476 56.4577 92.3934 56.4577C94.5794 56.4577 94.993 58.0374 94.993 60.3V70.552H102.457V57.1375C102.457 52.6497 99.1812 50.502 95.5058 50.502ZM67.7445 64.4834C63.6143 64.4834 62.2909 60.7137 62.2909 57.0992C62.2909 53.4789 63.6143 49.7131 67.7445 49.7131C71.3914 49.7131 72.2688 52.687 72.4299 53.6665H80.6629C79.9172 46.92 74.9224 43 67.9774 43C59.7179 43 54 48.9065 54 57.0992C54 65.0483 59.2276 71.1916 67.9774 71.1916C75.6818 71.1916 80.7808 65.4255 80.7808 60.0004H72.4721C71.9426 62.5224 70.7116 64.4834 67.7445 64.4834ZM126.721 70.552H134.183V50.9923H126.721V70.552ZM138.162 70.552H145.625V43.6425H138.162V70.552ZM126.721 50.2751L134.506 43.6415H126.721V50.2751Z" fill="black"/>
</svg>
