<svg width="200" height="114" viewBox="0 0 200 114" fill="none" xmlns="http://www.w3.org/2000/svg">
<g clip-path="url(#clip0_7_2500)">
<path d="M90.0479 39C97.7655 39.0001 101.571 43.3086 101.571 50.5234V63.5283C101.571 70.7435 97.7654 75.0517 90.0479 75.0518H60.5371C52.806 75.0517 49.0002 70.7443 49 63.5283V50.5234C49.0001 43.3082 52.806 39.0001 60.5371 39H90.0479ZM88.6465 43.8369C85.1973 43.837 82.6994 45.8197 81.9326 48.2246L76.541 65.0742C76.3561 65.6822 75.8802 66 75.2588 66C74.6516 65.9999 74.1755 65.6818 73.9902 65.0742L68.5986 48.2246C67.8318 45.8197 65.334 43.8369 61.8848 43.8369C57.9599 43.8371 54.9336 46.2553 54.9336 49.7705V66.0654H60.9209V51.1982C60.9209 50.2737 61.2901 49.8234 61.9375 49.8232C62.519 49.8232 62.9427 50.2727 63.2598 51.1982L68.1094 66.2764C68.9819 69.3424 71.7709 71.4443 75.2598 71.4443C78.7615 71.4442 81.5494 69.3423 82.4219 66.2764L87.2725 51.1982C87.5899 50.2736 88.0123 49.8233 88.5938 49.8232C89.241 49.8232 89.6113 50.2727 89.6113 51.1982V66.0654H95.5977V49.7705C95.5974 46.2554 92.5714 43.8369 88.6465 43.8369Z" fill="black"/>
<path d="M140.068 44.8676V60.1317C140.068 64.0171 142.421 66.5412 146.055 66.5412H150.641V62.286H146.386C144.998 62.2091 144.668 61.4008 144.641 60.3961V51.6738H150.733V47.8279H144.641V44.8676H140.068ZM112.527 49.1232C111.14 49.1232 110.809 49.995 110.796 50.9997V66.5016H106.223V51.2772C106.223 47.3786 108.576 44.8676 112.197 44.8676H114.51C118.144 44.8676 120.496 47.3786 120.496 51.2772V66.5016H115.924V50.9997C115.91 49.9953 115.593 49.1232 114.179 49.1232H112.527ZM128.016 54.2506V50.9997C128.03 49.9953 128.347 49.1098 129.747 49.1098H130.804C132.205 49.1098 132.522 49.995 132.536 50.9997L132.509 54.2506H128.016ZM137.108 51.2772C137.108 47.3917 134.756 44.8676 131.122 44.8676H129.43C125.796 44.8676 123.443 47.3917 123.443 51.2772V60.1317C123.443 64.0171 125.796 66.5412 129.417 66.5412H136.276V62.286H129.747C128.333 62.2091 128.016 61.3739 128.016 60.3431V58.5854H135.02C135.628 58.5854 137.108 58.4801 137.108 56.9203V51.2772Z" fill="black"/>
</g>
<defs>
<clipPath id="clip0_7_2500">
<rect width="101.733" height="36.052" fill="white" transform="translate(49 39)"/>
</clipPath>
</defs>
</svg>
