<svg width="200" height="114" viewBox="0 0 200 114" fill="none" xmlns="http://www.w3.org/2000/svg">
<g clip-path="url(#clip0_7_23)">
<path d="M176.112 46.8722C173.902 45.5771 170.576 44.9674 168.215 44.9674C161.967 44.9674 159.072 47.7606 159.072 51.7482C159.072 55.1764 161.663 57.2584 164.481 58.3498C165.878 58.858 167.427 59.3915 168.595 59.7219C170.474 60.2547 171.211 61.1437 171.211 62.4389C171.211 64.0644 170.068 65.0291 167.097 65.0291C165.065 65.0291 162.399 64.2163 160.495 63.1242L158.717 67.0859C161.154 68.4825 164.431 69.219 167.148 69.219C172.988 69.219 176.391 66.299 176.391 62.261C176.391 58.4268 174.36 57.0806 172.074 56.0907C171.186 55.7351 169.535 55.2016 168.671 54.9475C165.751 54.1347 164.177 53.3982 164.177 51.4689C164.177 50.0463 165.116 48.929 168.316 48.929C170.627 48.929 172.887 49.7166 174.435 50.605L176.112 46.8722ZM152.114 45.2978V64.4193H151.53L144.775 45.2978H135.634V68.7877H140.585V49.361H141.22L147.899 68.7877H157.041V45.2978H152.114ZM133.983 48.0659C131.951 45.8053 128.625 44.9422 125.628 44.9422C118.696 44.9422 114.48 49.0817 114.48 57.0554C114.48 64.6735 117.73 69.1686 125.577 69.1686C128.498 69.1686 131.57 68.4825 133.652 67.2637L132.485 63.3531C130.809 64.1911 128.295 64.7498 125.933 64.7498C121.006 64.7498 119.711 61.6009 119.711 57.0043C119.711 51.6467 122.098 49.0817 125.831 49.0817C128.041 49.0817 129.894 50.0463 131.138 51.3422L133.983 48.0659Z" fill="black"/>
<path d="M42.0557 39C52.0356 39.0002 60.1104 47.1009 60.1104 57.0557C60.1102 67.0355 52.0355 75.1102 42.0557 75.1104C32.1009 75.1104 24.0254 67.0356 24 57.0557C24 47.0756 32.1007 39 42.0557 39ZM42.0557 41.9463C33.7263 41.9463 26.9463 48.7263 26.9463 57.0557C26.9464 61.0934 28.5201 64.8766 31.3643 67.7461C34.2079 70.5905 38.0177 72.165 42.0557 72.165C46.0935 72.165 49.8766 70.5904 52.7461 67.7461C55.5904 64.9025 57.165 61.0935 57.165 57.0557V56.3701H46.3975V57.7666H55.7422V57.9697C55.2598 65.0801 49.3181 70.7429 42.0811 70.7432C38.424 70.7432 34.9962 69.3205 32.4053 66.7305C29.7906 64.1662 28.3682 60.712 28.3682 57.0557C28.3682 53.3985 29.7906 49.9701 32.3809 47.3799C34.9704 44.7904 38.3986 43.3682 42.0557 43.3682C42.2085 43.3682 42.6143 43.3674 42.792 43.3926V41.9707C42.6143 41.9707 42.2594 41.9463 42.0557 41.9463ZM41.3447 49.1318V64.9531H46.3975V63.5566H42.791L42.792 49.1318H41.3447ZM36.3164 49.1318C36.033 49.1316 35.7521 49.1875 35.4902 49.2959C35.2282 49.4043 34.9895 49.5631 34.7891 49.7637C34.5886 49.9642 34.4296 50.2028 34.3213 50.4648C34.213 50.7268 34.1579 51.0076 34.1582 51.291C34.158 51.5745 34.2139 51.8552 34.3223 52.1172C34.4307 52.3791 34.5896 52.617 34.79 52.8174C34.9905 53.0178 35.2283 53.1768 35.4902 53.2852C35.7522 53.3935 36.0329 53.4494 36.3164 53.4492C36.5998 53.4494 36.8807 53.3935 37.1426 53.2852C37.4044 53.1768 37.6424 53.0178 37.8428 52.8174C38.0432 52.617 38.2022 52.3791 38.3105 52.1172C38.4189 51.8552 38.4748 51.5745 38.4746 51.291C38.4749 51.0075 38.4189 50.7268 38.3105 50.4648C38.2022 50.2028 38.0432 49.9642 37.8428 49.7637C37.6424 49.5633 37.4044 49.4043 37.1426 49.2959C36.8807 49.1875 36.5999 49.1317 36.3164 49.1318Z" fill="black"/>
<path d="M96.9068 59.8486H101.326V63.9629C100.513 64.2674 98.9132 64.5719 97.415 64.5719C92.5391 64.5719 90.9142 62.0832 90.9142 57.0553C90.9142 52.2557 92.4628 49.4113 97.3387 49.4113C100.056 49.4113 101.605 50.2752 102.875 51.9L106.252 48.8023C104.195 45.8564 100.589 44.9673 97.212 44.9673C89.6191 44.9673 85.6071 49.1068 85.6071 57.0301C85.6071 64.9023 89.2124 69.1678 97.1616 69.1678C100.818 69.1678 104.373 68.229 106.303 66.8828V55.4809H96.8816V59.8486H96.9068ZM73.7221 45.2978H68.2875V68.7877H84.9714V64.2163H73.7221V45.2978Z" fill="black"/>
</g>
<defs>
<clipPath id="clip0_7_23">
<rect width="152.391" height="36.1107" fill="white" transform="translate(24 39)"/>
</clipPath>
</defs>
</svg>
