<svg width="200" height="114" viewBox="0 0 200 114" fill="none" xmlns="http://www.w3.org/2000/svg">
<path d="M115.851 43C116 43 116.148 43.0302 116.285 43.0879C116.422 43.1456 116.547 43.2296 116.651 43.3359C116.756 43.4423 116.838 43.5686 116.893 43.707C116.948 43.8455 116.974 43.9936 116.971 44.1426V70.1494C116.971 70.4463 116.853 70.7315 116.643 70.9414C116.433 71.1512 116.147 71.2686 115.851 71.2686H111.64C111.538 71.2669 111.437 71.2538 111.338 71.2295H111.164L111.107 71.2021H111.074L111.007 71.1572C110.893 71.0791 110.794 70.9803 110.716 70.8662L98.7715 54.7383V70.3789C98.7714 70.6758 98.6533 70.9609 98.4434 71.1709C98.2334 71.3809 97.9483 71.4989 97.6514 71.499H93.4121C93.1152 71.499 92.8301 71.3808 92.6201 71.1709C92.4101 70.9609 92.2921 70.6758 92.292 70.3789V44.3047C92.2921 44.0078 92.4102 43.7227 92.6201 43.5127C92.8301 43.3028 93.1152 43.1846 93.4121 43.1846H98.1553L98.2168 43.2188H98.25L98.3115 43.2637H98.3457L98.4072 43.3135L98.4746 43.3809C98.5106 43.4163 98.5422 43.4564 98.5693 43.499L110.497 59.6094V44.1201C110.497 43.8232 110.615 43.5381 110.825 43.3281C111.035 43.1182 111.32 43.0001 111.617 43H115.851ZM64.376 43.0449C64.673 43.0449 64.9579 43.163 65.168 43.373C65.378 43.5831 65.4961 43.868 65.4961 44.165V64.8848H76.9033C77.2003 64.8848 77.4853 65.0029 77.6953 65.2129C77.9053 65.4229 78.0234 65.7079 78.0234 66.0049V70.2383C78.0234 70.5352 77.9052 70.8203 77.6953 71.0303C77.4853 71.2403 77.2003 71.3584 76.9033 71.3584L76.9199 71.3418H60.1201C59.8231 71.3418 59.5382 71.2237 59.3281 71.0137C59.1181 70.8036 59 70.5187 59 70.2217V44.165C59 43.868 59.1181 43.5831 59.3281 43.373C59.5382 43.163 59.8231 43.0449 60.1201 43.0449H64.376ZM87.0059 43C87.6366 43.0002 88.1474 43.5118 88.1475 44.1426V70.2158C88.1475 70.8466 87.6366 71.3582 87.0059 71.3584H82.7715C82.1408 71.3582 81.6299 70.8466 81.6299 70.2158V44.1426C81.6299 43.5118 82.1408 43.0002 82.7715 43H87.0059ZM138.99 43.0508C139.287 43.0508 139.572 43.1689 139.782 43.3789C139.992 43.5889 140.11 43.8739 140.11 44.1709V48.4102C140.11 48.7071 139.992 48.9922 139.782 49.2021C139.572 49.4121 139.287 49.5303 138.99 49.5303H127.583V53.9258H138.99C139.287 53.9258 139.572 54.0439 139.782 54.2539C139.992 54.4639 140.11 54.7489 140.11 55.0459V59.3242C140.11 59.6213 139.992 59.9062 139.782 60.1162C139.572 60.3262 139.287 60.4443 138.99 60.4443H127.583V64.8457H138.99C139.287 64.8457 139.572 64.9638 139.782 65.1738C139.992 65.3839 140.11 65.6688 140.11 65.9658V70.1992C140.116 70.3495 140.09 70.4993 140.036 70.6396C139.982 70.7799 139.901 70.9085 139.797 71.0166C139.692 71.1248 139.566 71.2108 139.428 71.2695C139.289 71.3282 139.141 71.3585 138.99 71.3584H122.19C121.893 71.3584 121.608 71.2403 121.398 71.0303C121.188 70.8202 121.07 70.5353 121.07 70.2383V44.1709C121.07 43.8739 121.188 43.5889 121.398 43.3789C121.608 43.1689 121.893 43.0508 122.19 43.0508H138.99Z" fill="black"/>
</svg>
