<svg width="200" height="114" viewBox="0 0 200 114" fill="none" xmlns="http://www.w3.org/2000/svg">
<g clip-path="url(#clip0_7_2512)">
<path d="M46.7251 44.3226L46.7498 60.5975C46.7498 61.6606 46.7498 63.2716 45.8681 64.1574C45.2542 64.7796 44.253 65.0886 42.8974 65.0886H38.5547C37.8254 65.0927 36.6017 65.0968 35.7241 64.2275C34.9989 63.5023 34.6281 62.2868 34.624 60.6222L34.6075 44.3349H29.177L29.1976 60.7047C29.1976 62.3404 29.5973 70.4861 37.2774 70.4779L44.4301 70.4696C47.339 70.4696 52.2174 69.1882 52.2092 60.6799L52.1886 44.3143L46.7251 44.3226Z" fill="black"/>
<path d="M16.495 53.9228L10.566 53.1852C9.13624 52.9504 7.86721 52.6208 7.86721 51.1004C7.86721 48.6942 8.55529 48.0432 13.4048 48.039H14.6162C17.4715 48.175 20.1208 48.4305 23.3676 49.3204L23.7631 49.4276V45.6823L23.7219 45.6164C23.2357 44.6563 18.7735 43.1277 14.4143 43.1318H13.207C5.84829 43.1401 2.27603 45.8759 2.28015 51.4918C2.28428 56.8852 6.81242 58.043 11.0563 58.6981L13.6932 59.0648C15.6215 59.3079 16.734 59.4604 17.4179 59.7364C18.5592 60.1938 19.1938 60.5811 19.169 62.3816C19.132 65.3688 17.1419 65.6984 12.8321 65.7025H11.6208C9.08268 65.7067 6.00898 64.9938 2.72514 63.6342L2.29252 63.4529V67.1199C2.29664 68.6073 6.78358 70.4861 11.8226 70.4779H12.931C21.1468 70.4655 24.9703 67.6967 24.9621 61.7512C24.9539 55.9994 20.6812 54.5655 16.4991 53.9228" fill="black"/>
<path d="M70.808 43.0989H70.0087C60.0789 43.1113 56.3913 46.8524 56.3995 56.9058L56.416 70.4779L62.2132 70.4697L62.1967 56.9182C62.1885 49.2916 63.8902 48.0061 69.0116 47.9979H70.3136C75.2497 47.9896 76.1561 49.4276 76.1561 52.9504C76.1561 55.13 75.4474 57.6433 73.4326 57.6475L64.2939 57.4909V61.4752L64.5576 61.5164C66.3953 61.8213 69.6503 62.0479 72.1265 62.0479C80.6637 62.0479 82.0522 57.3591 82.0481 53.4325C82.0398 46.9513 77.8331 43.0906 70.7998 43.0989" fill="black"/>
<path d="M101.574 43.4326C100.066 43.1937 96.5431 43.0659 94.7549 43.07C91.5741 43.07 86.2384 44.372 86.2508 53.0328L86.2714 70.482L91.9573 70.4738L91.9367 53.3954C91.9326 48.7972 92.769 48.3275 96.3659 48.3234H101.578V43.4285L101.574 43.4326Z" fill="black"/>
<path d="M119.143 65.4677H118.034C113.214 65.4759 110.288 64.9032 110.28 56.9388C110.272 49.3328 111.982 48.0473 117.124 48.0391H118.422C123.226 48.0308 124.264 48.8137 124.268 52.4518C124.268 54.2647 123.457 55.0435 121.545 55.0435L112.402 55.0558V58.8629L112.666 58.9082C114.479 59.2173 117.742 59.448 120.251 59.4439C123.955 59.4398 130.16 58.727 130.16 51.6196C130.16 44.5121 124.046 43.1318 118.924 43.1401H118.117C108.166 43.1524 104.47 46.8936 104.483 56.947C104.495 66.5719 108.278 70.4944 117.544 70.482H118.249C124.12 70.4738 129.081 68.9246 129.077 67.0993V63.9267L128.681 64.0338C125.269 64.9403 122.616 65.4677 119.147 65.4718" fill="black"/>
<path d="M168.507 53.2017C168.503 48.4717 166.719 46.0449 164.791 44.8005C164.791 44.8005 162.702 43.2266 158.977 43.2266C157.164 43.2142 155.735 43.4779 154.626 43.8323C153.089 44.2608 152.133 45.0066 151.651 45.4804C151.487 45.6411 151.404 45.74 151.404 45.74C151.404 45.74 149.431 43.1895 143.831 43.2225C141.384 43.2225 139.649 43.8982 138.743 44.3638C138.71 44.3803 138.681 44.3968 138.648 44.4132C138.598 44.4421 138.553 44.4627 138.508 44.4915C134.841 46.4775 134.359 50.9933 134.363 53.2388L134.383 70.4779H139.554L139.534 53.2347C139.534 50.6389 140.061 48.2327 143.951 48.2286C147.976 48.2245 148.767 50.0539 148.771 53.2264L148.792 70.4655H154.111L154.091 53.2223C154.091 49.7737 155.504 48.1668 158.549 48.1627C161.841 48.1627 163.312 49.716 163.316 53.21L163.336 70.4491H168.524L168.503 53.2058L168.507 53.2017Z" fill="black"/>
<path d="M183.756 48.1462H184.865C189.685 48.138 192.611 48.7107 192.619 56.6751C192.627 64.2811 190.917 65.5666 185.775 65.5748H184.477C179.673 65.5831 178.635 64.8002 178.631 61.162C178.631 59.3491 179.442 58.5704 181.354 58.5704L190.497 58.5581V54.7509L190.233 54.7056C188.42 54.3966 185.157 54.1659 182.648 54.17C178.944 54.1741 172.739 54.8869 172.739 61.9943C172.739 69.1018 178.853 70.482 183.975 70.4738H184.782C194.733 70.4614 198.428 66.7203 198.416 56.6669C198.404 47.042 194.621 43.1195 185.355 43.1319H184.65C178.779 43.1401 173.818 44.6893 173.822 46.5146V49.6872L174.218 49.58C177.629 48.6736 180.283 48.1462 183.752 48.1421" fill="black"/>
</g>
<defs>
<clipPath id="clip0_7_2512">
<rect width="196.536" height="27.6056" fill="white" transform="translate(2 43)"/>
</clipPath>
</defs>
</svg>
