<svg width="24" height="24" viewBox="0 0 24 24" fill="none" xmlns="http://www.w3.org/2000/svg">
<path fill-rule="evenodd" clip-rule="evenodd" d="M12 6.50096C13.5184 6.50096 14.8941 7.11648 15.8897 8.11109C16.8854 9.10665 17.5 10.4813 17.5 12.0005C17.5 13.5197 16.8844 14.8943 15.8897 15.8899C14.8941 16.8854 13.5184 17.5 12 17.5C10.4807 17.5 9.10592 16.8845 8.11027 15.8899C7.11462 14.8943 6.5 13.5197 6.5 12.0005C6.5 10.4813 7.11558 9.10665 8.11027 8.11109C9.10592 7.11553 10.4807 6.50096 12 6.50096Z" stroke="currentColor" stroke-width="1.5"/>
<path d="M17.625 6.37498L18.7017 5.2983L19.7784 4.22163M4.22163 19.7784L5.29924 18.7008L6.37591 17.6241M19.9538 12H21.4774H23M1 12H2.52265H4.04623M17.625 17.6241L18.7017 18.7008L19.7784 19.7784M4.22163 4.22163L5.29924 5.2983L6.37591 6.37498M12.0317 4.04623V2.52265V1M12.0317 23V21.4764V19.9538" stroke="currentColor" stroke-width="1.5"/>
</svg>
