<svg width="72" height="18" viewBox="0 0 72 18" fill="none" xmlns="http://www.w3.org/2000/svg">
    <path d="M72 9.32182C72 10.3372 71.7928 11.2511 71.3783 12.0634C70.9639 12.8757 70.4024 13.5729 69.6938 14.1551C68.9987 14.7372 68.2099 15.184 67.3275 15.4954C66.4452 15.7932 65.5294 15.9421 64.5802 15.9421C64.0989 15.9421 63.5976 15.8948 63.0762 15.8C62.5682 15.7188 62.0735 15.5969 61.5922 15.4345C61.1243 15.2585 60.7032 15.0486 60.3288 14.8049C60.3288 14.8049 60.3222 14.8049 60.3088 14.8049C60.3088 14.8049 60.3021 14.8049 60.2887 14.8049C60.2887 14.8049 60.2887 14.8117 60.2887 14.8252V18.0745H53.3502C53.3502 17.2351 53.3502 16.4025 53.3502 15.5766C53.3502 14.7372 53.3502 13.9046 53.3502 13.0788C53.3502 12.2394 53.3502 11.4067 53.3502 10.5809C53.3502 9.74151 53.3502 8.9089 53.3502 8.08305C53.3502 7.24366 53.3502 6.41104 53.3502 5.58519C53.3502 4.74581 53.3502 3.89965 53.3502 3.04672H60.2887C60.2887 3.76426 60.2887 4.46827 60.2887 5.15873C60.2887 5.84919 60.2887 6.53966 60.2887 7.23012C60.2887 7.92059 60.2887 8.63136 60.2887 9.36244C60.2887 9.61967 60.3556 9.84305 60.4893 10.0326C60.623 10.2221 60.8035 10.3778 61.0307 10.4997C61.258 10.6215 61.512 10.7163 61.7928 10.784C62.0869 10.8381 62.381 10.8652 62.6751 10.8652C63.1965 10.8652 63.6243 10.7907 63.9586 10.6418C64.3061 10.4929 64.5602 10.3034 64.7206 10.0732C64.8944 9.84305 64.9813 9.60613 64.9813 9.36244C64.9813 9.14582 64.9345 8.94951 64.8409 8.77351C64.7473 8.58397 64.6069 8.42151 64.4198 8.28612C64.2326 8.1372 63.992 8.02212 63.6978 7.94089C63.4037 7.85966 63.0628 7.81905 62.6751 7.81905C62.1136 7.81905 61.6123 7.92059 61.1711 8.12366C60.7433 8.32674 60.4559 8.65843 60.3088 9.11874L61.9131 3.04672C62.3543 2.93842 62.7887 2.86395 63.2166 2.82334C63.6444 2.76918 64.0655 2.74211 64.4799 2.74211C65.2955 2.74211 66.0775 2.83688 66.8262 3.02642C67.5882 3.21595 68.2767 3.49349 68.8917 3.85903C69.52 4.22457 70.0682 4.67811 70.5361 5.21965C71.004 5.74765 71.365 6.35689 71.619 7.04735C71.873 7.72428 72 8.48243 72 9.32182Z" fill="currentColor"/>
    <path d="M37.2364 4.05498C38.2124 3.60821 39.2685 3.27652 40.4049 3.0599C41.5546 2.82975 42.7044 2.71467 43.8541 2.71467C44.9771 2.71467 46.06 2.82298 47.1028 3.0396C48.1455 3.25621 49.0747 3.5879 49.8902 4.03467C50.7191 4.48145 51.3742 5.03652 51.8554 5.69991C52.3367 6.3633 52.5774 7.14176 52.5774 8.0353C52.5774 9.34854 52.5774 10.6618 52.5774 11.975C52.5774 13.2882 52.5774 14.6015 52.5774 15.9147C52.1095 15.9147 51.6415 15.9147 51.1736 15.9147C50.7057 15.9147 50.2378 15.9147 49.7699 15.9147C49.302 15.9147 48.834 15.9147 48.3661 15.9147C47.8982 15.9147 47.4303 15.9147 46.9624 15.9147C46.4945 15.9147 46.0266 15.9147 45.5586 15.9147C45.5586 15.1972 45.5586 14.4864 45.5586 13.7824C45.5586 13.0649 45.5586 12.3541 45.5586 11.6501C45.5586 11.4064 45.4784 11.2101 45.318 11.0612C45.1576 10.9122 44.9637 10.8107 44.7365 10.7565C44.5092 10.6888 44.2819 10.655 44.0546 10.655C43.5466 10.655 43.1589 10.7565 42.8915 10.9596C42.6375 11.1627 42.5105 11.3929 42.5105 11.6501C42.5105 11.9073 42.6442 12.1442 42.9116 12.3609C43.179 12.5639 43.56 12.6655 44.0546 12.6655C44.2953 12.6655 44.5693 12.6181 44.8768 12.5233C45.1843 12.4285 45.4183 12.1849 45.5787 11.7922C45.2979 12.4556 45.0105 13.119 44.7164 13.7824C44.4356 14.4458 44.1549 15.1092 43.8741 15.7726C43.3929 16.0162 42.8848 16.1855 42.3501 16.2803C41.8287 16.3886 41.3073 16.4427 40.7859 16.4427C40.1576 16.4427 39.5493 16.3547 38.961 16.1787C38.3862 16.0163 37.8648 15.7726 37.3969 15.4476C36.9423 15.1227 36.5813 14.7166 36.314 14.2292C36.0466 13.7418 35.9129 13.1732 35.9129 12.5233C35.9129 12.1307 35.9797 11.7449 36.1134 11.3658C36.2471 10.9867 36.4477 10.6279 36.715 10.2895C36.9824 9.951 37.3166 9.65315 37.7177 9.39592C38.1321 9.13869 38.6201 8.94238 39.1816 8.807C39.7431 8.65807 40.3848 8.58361 41.1068 8.58361C41.5747 8.58361 42.0292 8.62423 42.4704 8.70546C42.9116 8.77315 43.326 8.88146 43.7137 9.03038C44.1148 9.17931 44.4691 9.36208 44.7766 9.57869C45.0974 9.79531 45.3581 10.039 45.5586 10.3098C45.5586 10.2827 45.5586 10.2624 45.5586 10.2488C45.5586 10.2218 45.5586 10.2015 45.5586 10.1879C45.5586 10.1608 45.5586 10.1405 45.5586 10.127C45.5586 9.70731 45.4517 9.34854 45.2378 9.05069C45.0372 8.73931 44.7565 8.48884 44.3955 8.2993C44.0479 8.09623 43.6402 7.9473 43.1723 7.85253C42.7177 7.75776 42.2364 7.71038 41.7284 7.71038C40.9396 7.71038 40.1442 7.81192 39.342 8.01499C38.5399 8.21807 37.838 8.51592 37.2364 8.90854V4.05498Z" fill="currentColor"/>
    <path d="M29.7776 3.32373C29.7776 4.13604 29.7776 4.95512 29.7776 5.78096C29.7776 6.59327 29.7776 7.41235 29.7776 8.2382C29.7776 9.05051 29.7776 9.86959 29.7776 10.6954C29.7776 11.5619 29.7776 12.4284 29.7776 13.2948C29.7776 14.1613 29.7776 15.0345 29.7776 15.9145H22.8391C22.8391 14.5742 22.8391 13.2339 22.8391 11.8936C22.8391 10.5533 22.8391 9.21297 22.8391 7.87266C22.8391 7.11451 22.8391 6.35635 22.8391 5.59819C22.8391 4.84004 22.8391 4.08188 22.8391 3.32373H29.7776ZM29.7576 11.0813L30.8405 5.6185C30.9608 5.03635 31.1947 4.55573 31.5423 4.17665C31.9033 3.78403 32.3244 3.48619 32.8057 3.28311C33.287 3.08003 33.7816 2.95819 34.2897 2.91757C34.7977 2.86342 35.2656 2.88372 35.6934 2.97849C36.1212 3.05972 36.4621 3.20188 36.7161 3.40496L35.1921 10.9594C34.8044 10.6345 34.3298 10.4111 33.7683 10.2893C33.2201 10.1674 32.6653 10.1268 32.1038 10.1674C31.5423 10.1945 31.0477 10.2893 30.6199 10.4517C30.1921 10.6142 29.9046 10.8241 29.7576 11.0813Z" fill="currentColor"/>
    <path d="M11.0495 0.0744629C13.4292 0.0744629 15.3944 0.37231 16.9452 0.968003C18.496 1.5637 19.6859 2.37601 20.5148 3.40493C21.3436 4.42032 21.865 5.57109 22.0789 6.85725L13.4158 8.92864C13.5629 8.41418 13.5696 7.96741 13.4359 7.58833C13.3022 7.20925 13.0348 6.91141 12.6337 6.69479C12.2327 6.47817 11.6979 6.36987 11.0294 6.36987C10.4011 6.36987 9.89975 6.45787 9.52542 6.63387C9.16446 6.80987 8.90376 7.03325 8.74333 7.30402C8.59628 7.56126 8.52275 7.8388 8.52275 8.13664C8.52275 8.35326 8.56954 8.5631 8.66312 8.76618C8.75671 8.95572 8.90377 9.13172 9.1043 9.29418C9.30484 9.45665 9.56553 9.58526 9.88639 9.68003C10.2072 9.7748 10.5883 9.82218 11.0294 9.82218C11.7113 9.82218 12.2393 9.74772 12.6137 9.5988C12.988 9.43634 13.2554 9.21295 13.4158 8.92864C13.2019 9.72742 12.988 10.533 12.7741 11.3453C12.5602 12.1576 12.3396 12.9767 12.1123 13.8025C11.8984 14.6148 11.6845 15.4204 11.4706 16.2191C11.1097 16.2868 10.7554 16.3342 10.4078 16.3613C10.0736 16.4019 9.67248 16.4222 9.20457 16.4222C8.18852 16.4222 7.25269 16.3274 6.39708 16.1379C5.55483 15.9484 4.79279 15.6844 4.11097 15.3459C3.42915 14.9939 2.82755 14.5742 2.30616 14.0868C1.79813 13.5994 1.37033 13.0579 1.02273 12.4622C0.688506 11.853 0.434491 11.2031 0.260693 10.5126C0.086896 9.80865 0 9.07757 0 8.31941C0 7.69664 0.0601615 7.09418 0.180483 6.51202C0.314173 5.91633 0.514707 5.34771 0.782088 4.80617C1.06284 4.25109 1.41712 3.73663 1.84493 3.26278C2.27273 2.77539 2.77407 2.34216 3.34894 1.96308C3.93718 1.57047 4.61231 1.232 5.37434 0.947696C6.13638 0.663388 6.98531 0.446772 7.92114 0.297848C8.87034 0.148924 9.91313 0.0744629 11.0495 0.0744629ZM13.4158 15.9145C13.4158 15.1293 13.4158 14.3508 13.4158 13.5791C13.4158 12.8074 13.4158 12.0357 13.4158 11.264C13.4158 10.4788 13.4158 9.70034 13.4158 8.92864C14.365 8.92864 15.3075 8.92864 16.2434 8.92864C17.1926 8.92864 18.1418 8.92864 19.091 8.92864C20.0402 8.92864 20.9827 8.92864 21.9185 8.92864V15.9145H13.4158Z" fill="currentColor"/>
</svg>
